<svg width="97" height="35" viewBox="0 0 97 35" fill="none" xmlns="http://www.w3.org/2000/svg">
<path fill-rule="evenodd" clip-rule="evenodd" d="M0 18.3047L0.00132053 18.1644L0.00404363 18.0241L0.00817633 17.8837L0.0137116 17.7434L0.0206632 17.603L0.0290173 17.4627L0.0387879 17.3224L0.049961 17.1821L0.0625505 17.0419L0.0765495 16.9017L0.0919578 16.7617L0.108769 16.6217L0.126996 16.4818L0.146633 16.3421L0.167673 16.2025L0.190122 16.0632L0.21398 15.9239L0.239234 15.7849L0.265898 15.646L0.293964 15.5073L0.323433 15.3688L0.354291 15.2307L0.386558 15.0928L0.420208 14.9551L0.45526 14.8177L0.491694 14.6806L0.529524 14.5438L0.568736 14.4074L0.60933 14.2713L0.6513 14.1356L0.694652 14.0002L0.739378 13.8652L0.785474 13.7306L0.832931 13.5964L0.881756 13.4626L0.931936 13.3293L0.983477 13.1964L1.03637 13.0639L1.0906 12.9321L1.14618 12.8006L1.2031 12.6696L1.26136 12.5392L1.32094 12.4094L1.38185 12.28L1.44407 12.1512L1.50762 12.023L1.57247 11.8954L1.63862 11.7684L1.70607 11.642L1.77481 11.5163L1.84485 11.3911L1.91616 11.2666L1.98875 11.1428L2.0626 11.0197L2.13772 10.8972L2.21409 10.7755L2.29172 10.6546L2.37058 10.5342L2.45068 10.4147L2.53202 10.2959L2.61457 10.1779L2.69833 10.0607L2.7833 9.94426L2.86947 9.82869L2.95684 9.71389L3.04538 9.59989L3.1351 9.48677L3.22599 9.3745L3.31804 9.2631L3.41124 9.15258L3.50559 9.04295L3.60106 8.93424L3.69767 8.82643L3.79539 8.71955L3.89422 8.61362L3.99415 8.50863L4.09516 8.4046L4.19726 8.30155L4.30043 8.19948L4.40467 8.09841L4.50995 7.99835L4.61628 7.8993L4.72364 7.80129L4.83202 7.70431L4.94142 7.60837L5.05182 7.51351L5.16321 7.41972L5.27558 7.327L5.38893 7.23538L5.50324 7.14485L5.61846 7.05545L5.73471 6.96716L5.85185 6.88001L5.96987 6.794L6.08879 6.70914L6.20866 6.62544L6.32936 6.5429L6.45094 6.46156L6.57342 6.38139L6.69678 6.30243L6.82089 6.22468L6.9459 6.14813L7.07166 6.07282L7.19824 5.99874L7.32564 5.9259L7.45379 5.85431L7.5827 5.78397L7.71235 5.71491L7.84276 5.64711L7.97393 5.58061L8.10577 5.51539L8.23837 5.45146L8.37159 5.38885L8.50556 5.32755L8.64014 5.26757L8.77541 5.20891L8.9113 5.1516L9.04779 5.09562L9.18491 5.04098L9.32264 4.98771L9.46092 4.93579L9.59982 4.88526L9.73926 4.83608L9.87925 4.78828L10.0197 4.74188L10.1607 4.69686L10.3023 4.65325L10.4443 4.61104L10.5868 4.57023L10.7298 4.53084L10.8732 4.49286L11.017 4.45632L11.1613 4.4212L11.306 4.38751L11.451 4.35527L11.5964 4.32446L11.7422 4.29511L11.8884 4.2672L12.0349 4.24075L12.1817 4.21576L12.3288 4.19223L12.4762 4.17017L12.6238 4.14958L12.7717 4.13047L12.9199 4.11283L13.0684 4.09666L13.217 4.08198L13.3658 4.06879L13.5148 4.05708L13.664 4.04687L14.4661 4L14.5119 7.95407L14.5381 7.95376L14.6489 7.9536L14.7597 7.95455L14.8704 7.95662L14.9813 7.9598L15.0922 7.9641L15.2031 7.9695L15.314 7.97603L15.4249 7.98369L15.5358 7.99244L15.6467 8.00233L15.7574 8.01333L15.8682 8.02545L15.9788 8.03869L16.0895 8.05305L16.2 8.06853L16.3104 8.08512L16.4207 8.10283L16.5309 8.12166L16.641 8.14161L16.7509 8.16267L16.8607 8.18485L16.9702 8.20814L17.0797 8.23254L17.1889 8.25806L17.2979 8.28468L17.4067 8.31241L17.5153 8.34126L17.6236 8.37121L17.7317 8.40226L17.8396 8.43441L17.9472 8.46766L18.0545 8.50201L18.1615 8.53746L18.2682 8.574L18.3746 8.61162L18.4807 8.65034L18.5864 8.69013L18.6918 8.73102L18.7968 8.77298L18.9015 8.81602L19.0058 8.86014L19.1097 8.90531L19.2132 8.95156L19.3163 8.99887L19.4189 9.04724L19.5211 9.09666L19.623 9.14714L19.7243 9.19867L19.8251 9.25124L19.9255 9.30484L20.0254 9.35949L20.1248 9.41517L20.2237 9.47186L20.3221 9.52959L20.4199 9.58832L20.5172 9.64809L20.614 9.70885L20.7102 9.77059L20.8057 9.83338L20.9008 9.89708L20.9952 9.96183L21.0891 10.0276L21.1823 10.0942L21.2749 10.1619L21.3669 10.2305L21.4581 10.3001L21.5489 10.3706L21.6388 10.4421L21.7282 10.5146L21.8168 10.5878L21.9048 10.6621L21.992 10.7374L22.0786 10.8134L22.1645 10.8904L22.2496 10.9684L22.3339 11.0472L22.4175 11.1269L22.5003 11.2075L22.5824 11.2889L22.6637 11.3712L22.7443 11.4544L22.824 11.5384L22.9029 11.6233L22.981 11.709L23.0583 11.7955L23.1347 11.8828L23.2103 11.971L23.2851 12.0599L23.359 12.1497L23.4321 12.2402L23.5043 12.3315L23.5756 12.4236L23.646 12.5164L23.7155 12.61L23.7841 12.7044L23.8518 12.7994L23.9186 12.8953L23.9844 12.9918L24.0493 13.0889L24.1133 13.1869L24.1763 13.2855L24.2384 13.3848L24.2994 13.4848L24.3595 13.5854L24.4187 13.6867L24.4768 13.7886L24.5339 13.8911L24.5901 13.9943L24.6453 14.0981L24.6994 14.2025L24.7525 14.3075L24.8045 14.4131L24.8556 14.5192L24.9056 14.6259L24.9546 14.7332L25.0025 14.841L25.0494 14.9493L25.0951 15.0582L25.1398 15.1676L25.1835 15.2774L25.226 15.3878L25.2675 15.4986L25.3079 15.61L25.3471 15.7217L25.3853 15.834L25.4224 15.9466L25.4584 16.0597L25.4932 16.1732L25.5269 16.2871L25.5595 16.4014L25.591 16.5161L25.6213 16.6312L25.6505 16.7466L25.6785 16.8623L25.7054 16.9784L25.7312 17.0948L25.7557 17.2116L25.7792 17.3286L25.8014 17.4459L25.8225 17.5635L25.8425 17.6814L25.8612 17.7995L25.8788 17.9179L25.8952 18.0365L25.9104 18.1553L25.9245 18.2744L25.9373 18.3936L25.949 18.513L25.9594 18.6326L25.9687 18.7524L25.9768 18.8723L25.9836 18.9923L25.9893 19.1124L25.9938 19.2328L25.9971 19.3531L25.9992 19.4736L26 19.5941L25.9997 19.7147L25.9981 19.8354L25.9953 19.9561L25.9913 20.0768L25.9861 20.1976L25.9797 20.3183L25.9721 20.4391L25.9633 20.5598L25.9532 20.6805L25.9419 20.8012L25.9295 20.9218L25.9157 21.0423L25.9008 21.1627L25.8847 21.2831L25.8673 21.4033L25.8488 21.5235L25.829 21.6434L25.808 21.7633L25.7858 21.883L25.7624 22.0025L25.7378 22.1219L25.7119 22.241L25.6849 22.36L25.6567 22.4787L25.6272 22.5972L25.5966 22.7155L25.5648 22.8335L25.5317 22.9512L25.4975 23.0687L25.4621 23.186L25.4254 23.3028L25.3876 23.4194L25.3486 23.5356L25.3084 23.6515L25.2671 23.7671L25.2245 23.8822L25.1808 23.997L25.1359 24.1115L25.0899 24.2255L25.0427 24.3391L24.9943 24.4524L24.9447 24.5651L24.894 24.6774L24.8422 24.7893L24.7892 24.9007L24.735 25.0116L24.6798 25.122L24.6234 25.232L24.5659 25.3413L24.5072 25.4502L24.4475 25.5585L24.3866 25.6663L24.3246 25.7736L24.2615 25.8802L24.1973 25.9863L24.132 26.0917L24.0656 26.1966L23.9982 26.3008L23.9296 26.4044L23.8601 26.5074L23.7894 26.6097L23.7177 26.7114L23.6449 26.8124L23.5711 26.9127L23.4962 27.0123L23.4203 27.1111L23.3434 27.2093L23.2655 27.3068L23.1865 27.4034L23.1065 27.4994L23.0256 27.5946L22.9436 27.689L22.8607 27.7827L22.7768 27.8756L22.692 27.9676L22.6061 28.0589L22.5194 28.1493L22.4316 28.2389L22.3429 28.3277L22.2533 28.4156L22.1628 28.5027L22.0714 28.5888L21.979 28.6742L21.8858 28.7585L21.7917 28.842L21.6967 28.9247L21.6008 29.0064L21.5041 29.0871L21.4065 29.167L21.308 29.2458L21.2087 29.3238L21.1086 29.4007L21.0077 29.4767L20.9061 29.5517L20.8035 29.6257L20.7002 29.6988L20.5961 29.7708L20.4913 29.8418L20.3856 29.9118L20.2793 29.9809L20.1722 30.0488L20.0644 30.1157L19.9558 30.1815L19.8466 30.2463L19.7367 30.31L19.626 30.3726L19.5147 30.4342L19.4027 30.4946L19.2901 30.5539L19.1768 30.6123L19.0629 30.6694L18.9483 30.7254L18.8332 30.7803L18.7174 30.8341L18.6011 30.8867L18.4842 30.9382L18.3667 30.9885L18.2486 31.0377L18.1301 31.0857L18.011 31.1326L17.8913 31.1783L17.7711 31.2227L17.6504 31.266L17.5293 31.3081L17.4078 31.3491L17.2856 31.3888L17.1631 31.4273L17.0401 31.4646L16.9168 31.5006L16.7929 31.5355L16.6687 31.5691L16.5441 31.6015L16.4191 31.6326L16.2938 31.6626L16.168 31.6912L16.042 31.7187L15.9156 31.7449L15.7889 31.7698L15.6619 31.7934L15.5347 31.8158L15.4071 31.8369L15.2792 31.8568L15.1511 31.8753L15.0228 31.8926L14.8942 31.9086L14.7654 31.9233L14.6364 31.9368L14.5072 31.949L14.3779 31.9598L14.2484 31.9694L14.1188 31.9777L13.9889 31.9847L13.859 31.9903L13.729 31.9947L13.5988 31.9978L13.4685 31.9995L13.3382 32L13.2079 31.9992L13.0775 31.997L12.947 31.9936L12.8165 31.9887L12.686 31.9826L12.5555 31.9753L12.4251 31.9665L12.2946 31.9565L12.1643 31.9452L12.034 31.9325L11.9037 31.9186L11.7736 31.9033L11.6435 31.8867L11.5135 31.8688L11.3837 31.8496L11.254 31.8291L11.1244 31.8072L10.9951 31.7841L10.8658 31.7596L10.7368 31.7339L10.608 31.7068L10.4794 31.6784L10.351 31.6487L10.2229 31.6178L10.095 31.5855L9.96744 31.5519L9.84011 31.5171L9.71312 31.4809L9.58641 31.4435L9.45996 31.4048L9.33393 31.3647L9.20824 31.3235L9.08289 31.2809L8.95789 31.237L8.83329 31.1919L8.70911 31.1455L8.58534 31.0978L8.46197 31.0489L8.33909 30.9987L8.21662 30.9473L8.09462 30.8946L7.97311 30.8407L7.85207 30.7855L7.73151 30.7291L7.6115 30.6714L7.49204 30.6125L7.37312 30.5524L7.25468 30.4911L7.13686 30.4286L7.01966 30.3648L6.90293 30.2999L6.78689 30.2338L6.67146 30.1664L6.55665 30.0979L6.44246 30.0282L6.32895 29.9573L6.21605 29.8852L6.10384 29.8121L5.99238 29.7377L5.88154 29.6622L5.77145 29.5855L5.66212 29.5077L5.55346 29.4288L5.44557 29.3488L5.33844 29.2676L5.23207 29.1853L5.12649 29.1019L5.0217 29.0175L4.9177 28.9319L4.81453 28.8453L4.71218 28.7576L4.61066 28.6688L4.50999 28.579L4.41019 28.4881L4.31125 28.3962L4.2132 28.3033L4.11603 28.2093L4.01976 28.1144L3.92441 28.0183L3.82998 27.9214L3.73648 27.8235L3.64393 27.7245L3.55233 27.6246L3.46169 27.5237L3.37203 27.4219L3.28335 27.3191L3.19566 27.2154L3.10898 27.1108L3.02331 27.0053L2.93866 26.8988L2.85505 26.7915L2.77248 26.6833L2.69095 26.5742L2.61049 26.4643L2.53109 26.3534L2.45278 26.2418L2.37554 26.1293L2.29941 26.016L2.22438 25.902L2.15047 25.787L2.07767 25.6714L2.006 25.5549L1.93547 25.4376L1.8661 25.3197L1.79787 25.2009L1.73081 25.0815L1.66491 24.9613L1.60019 24.8404L1.53666 24.7187L1.47432 24.5964L1.41318 24.4735L1.35325 24.3499L1.29453 24.2257L1.23704 24.1007L1.18077 23.9752L1.12574 23.849L1.07195 23.7223L1.01941 23.5949L0.968124 23.467L0.918094 23.3385L0.869337 23.2094L0.82186 23.0798L0.775655 22.9497L0.730737 22.8191L0.687105 22.688L0.644773 22.5563L0.603747 22.4242L0.564022 22.2916L0.525617 22.1586L0.488526 22.0251L0.452756 21.8912L0.418313 21.757L0.385204 21.6223L0.353429 21.4872L0.323002 21.3517L0.293916 21.2159L0.266178 21.0797L0.239795 20.9432L0.214767 20.8064L0.1911 20.6693L0.168802 20.5319L0.147865 20.3942L0.128303 20.2562L0.110117 20.118L0.0933126 19.9795L0.0778837 19.8409L0.0638369 19.702L0.051179 19.563L0.03991 19.4237L0.03003 19.2842L0.0215458 19.1446L0.0144574 19.0049L0.00876473 18.8651L0.00446793 18.7251L0.0015737 18.5851L8.8905e-05 18.4449L0 18.3047ZM13.2587 8.03689L13.2275 5.34175L13.1979 5.34468L13.0619 5.35949L12.9262 5.37565L12.7906 5.39318L12.6555 5.412L12.5206 5.43221L12.3858 5.45376L12.2514 5.47664L12.1172 5.50088L11.9836 5.52638L11.8498 5.55331L11.717 5.58145L11.584 5.61101L11.4517 5.64182L11.3195 5.67401L11.1879 5.70743L11.0567 5.74219L10.9258 5.77824L10.7953 5.8156L10.6655 5.85422L10.5358 5.89416L10.4068 5.93534L10.2782 5.97783L10.1503 6.02149L10.0225 6.06654L9.89546 6.11279L9.76902 6.16026L9.64292 6.20903L9.51751 6.25899L9.39277 6.31015L9.26838 6.36263L9.14461 6.4163L9.02145 6.4712L8.89898 6.52725L8.77712 6.58451L8.65595 6.64293L8.53518 6.70264L8.41531 6.76345L8.29605 6.82543L8.17748 6.88859L8.05959 6.95291L7.94252 7.01833L7.82593 7.08496L7.7101 7.15275L7.59528 7.2215L7.48082 7.2916L7.36744 7.36263L7.25482 7.43477L7.14275 7.50808L7.03156 7.58247L6.9212 7.65795L6.81186 7.73431L6.70294 7.81203L6.59511 7.89057L6.4881 7.9702L6.38184 8.05093L6.27654 8.13261L6.17219 8.21527L6.06847 8.2991L5.96591 8.38372L5.86409 8.46946L5.76324 8.55612L5.66328 8.6438L5.56434 8.73232L5.46614 8.82195L5.36907 8.91238L5.27282 9.00386L5.17769 9.09611L5.08342 9.18935L4.99021 9.28344L4.89794 9.37846L4.80657 9.47445L4.7164 9.57111L4.62724 9.6686L4.53888 9.76723L4.45173 9.86649L4.36566 9.96645L4.28047 10.0675L4.19652 10.1691L4.11349 10.2717L4.03159 10.3749L3.95075 10.479L3.87098 10.5838L3.79237 10.6893L3.7148 10.7955L3.63829 10.9026L3.56301 11.0102L3.48874 11.1187L3.41565 11.2278L3.3437 11.3375L3.27282 11.448L3.20314 11.5591L3.1346 11.6707L3.06721 11.7831L3.00103 11.896L2.93593 12.0096L2.87201 12.1239L2.80934 12.2385L2.7478 12.3538L2.68743 12.4697L2.62829 12.5861L2.57031 12.7031L2.51357 12.8205L2.45802 12.9384L2.40369 13.0569L2.35055 13.1759L2.29867 13.2952L2.24796 13.4151L2.19849 13.5355L2.15029 13.6562L2.10329 13.7773L2.05752 13.8989L2.01302 14.0209L1.96974 14.1432L1.92774 14.2659L1.88696 14.389L1.84744 14.5124L1.80918 14.6361L1.77219 14.7601L1.73644 14.8846L1.70197 15.0092L1.66877 15.1341L1.63682 15.2593L1.60615 15.3848L1.57676 15.5105L1.54864 15.6364L1.52179 15.7625L1.49622 15.8889L1.47193 16.0154L1.44891 16.1421L1.42718 16.2689L1.40673 16.3959L1.38757 16.5231L1.36968 16.6503L1.35308 16.7777L1.33776 16.9052L1.32373 17.0327L1.31098 17.1604L1.29952 17.2881L1.28934 17.4158L1.28045 17.5436L1.27284 17.6714L1.26651 17.7992L1.26147 17.927L1.2577 18.0547L1.25523 18.1825L1.25402 18.3102L1.2541 18.4378L1.25546 18.5654L1.25809 18.6929L1.262 18.8203L1.26718 18.9476L1.27364 19.0748L1.28136 19.2018L1.29035 19.3287L1.3006 19.4554L1.31212 19.5819L1.3249 19.7083L1.33894 19.8345L1.35423 19.9605L1.37077 20.0862L1.38857 20.2117L1.40762 20.337L1.4279 20.462L1.44943 20.5867L1.4722 20.7112L1.49619 20.8353L1.52142 20.9592L1.54787 21.0827L1.57555 21.2059L1.60444 21.3287L1.63454 21.4512L1.66587 21.5734L1.69838 21.695L1.73211 21.8164L1.76704 21.9374L1.80315 22.0579L1.84045 22.178L1.87892 22.2976L1.91858 22.4169L1.95941 22.5356L2.00141 22.6539L2.04456 22.7716L2.08889 22.8889L2.13434 23.0057L2.18094 23.122L2.22869 23.2377L2.27757 23.3528L2.32757 23.4675L2.3787 23.5816L2.43094 23.6951L2.48428 23.808L2.53873 23.9202L2.59427 24.032L2.6509 24.1431L2.7086 24.2535L2.76739 24.3633L2.82724 24.4725L2.88815 24.581L2.95011 24.6888L3.01313 24.7959L3.07715 24.9024L3.14224 25.0082L3.20833 25.1132L3.27545 25.2176L3.34358 25.3212L3.41269 25.424L3.4828 25.5261L3.55391 25.6275L3.62597 25.7281L3.69902 25.8279L3.773 25.9269L3.84797 26.0251L3.92383 26.1224L4.00065 26.2191L4.07842 26.3149L4.15706 26.4098L4.23663 26.5039L4.31709 26.5971L4.39846 26.6895L4.48069 26.781L4.56377 26.8717L4.64774 26.9614L4.73255 27.0503L4.81822 27.1383L4.90471 27.2253L4.99204 27.3115L5.08015 27.3967L5.16908 27.481L5.25883 27.5644L5.34934 27.6468L5.44058 27.7282L5.53266 27.8087L5.62551 27.8882L5.71897 27.9667L5.81333 28.0444L5.90829 28.1209L6.00402 28.1965L6.10042 28.2711L6.19758 28.3447L6.29535 28.4172L6.39381 28.4887L6.49288 28.5592L6.59271 28.6287L6.69308 28.6971L6.79421 28.7645L6.89582 28.8309L6.99811 28.8961L7.10101 28.9604L7.20439 29.0235L7.30846 29.0856L7.41301 29.1466L7.51817 29.2065L7.62382 29.2653L7.73007 29.3231L7.83674 29.3797L7.94396 29.4353L8.05172 29.4897L8.15996 29.543L8.26862 29.5952L8.37775 29.6463L8.48729 29.6962L8.59738 29.7451L8.70781 29.7928L8.81872 29.8394L8.92997 29.8848L9.04164 29.929L9.15371 29.9722L9.26606 30.0142L9.37882 30.055L9.49198 30.0947L9.60543 30.1333L9.71921 30.1707L9.8332 30.2069L9.94767 30.2419L10.0623 30.2758L10.1772 30.3085L10.2924 30.3401L10.4079 30.3705L10.5236 30.3997L10.6394 30.4277L10.7556 30.4545L10.8719 30.4802L10.9884 30.5047L11.1051 30.528L11.2219 30.5501L11.3389 30.571L11.4561 30.5908L11.5734 30.6093L11.6908 30.6267L11.8083 30.6428L11.9259 30.6579L12.0435 30.6717L12.1613 30.6843L12.2791 30.6958L12.397 30.706L12.5149 30.7151L12.6328 30.7229L12.7507 30.7296L12.8686 30.7351L12.9865 30.7394L13.1044 30.7426L13.2223 30.7445L13.3401 30.7452L13.4578 30.7448L13.5755 30.7432L13.693 30.7405L13.8105 30.7365L13.9279 30.7314L14.0452 30.7251L14.1623 30.7176L14.2793 30.709L14.3961 30.6992L14.5128 30.6882L14.6292 30.676L14.7456 30.6627L14.8616 30.6483L14.9775 30.6327L15.0931 30.6159L15.2086 30.598L15.3237 30.5789L15.4387 30.5587L15.5533 30.5373L15.6677 30.5149L15.7817 30.4913L15.8955 30.4665L16.009 30.4407L16.1221 30.4137L16.2349 30.3855L16.3473 30.3563L16.4594 30.326L16.571 30.2945L16.6824 30.262L16.7933 30.2283L16.9039 30.1936L17.014 30.1578L17.1237 30.1208L17.233 30.0829L17.3417 30.0439L17.4502 30.0037L17.5581 29.9625L17.6655 29.9202L17.7724 29.877L17.8788 29.8327L17.9847 29.7872L18.0902 29.7408L18.1951 29.6934L18.2993 29.6449L18.4032 29.5954L18.5065 29.5449L18.6091 29.4934L18.7112 29.4409L18.8127 29.3874L18.9136 29.3329L19.014 29.2774L19.1136 29.221L19.2127 29.1636L19.3111 29.1053L19.409 29.0459L19.506 28.9857L19.6026 28.9245L19.6984 28.8624L19.7935 28.7993L19.8879 28.7353L19.9818 28.6704L20.0747 28.6047L20.167 28.538L20.2586 28.4705L20.3494 28.4021L20.4396 28.3327L20.5289 28.2626L20.6177 28.1915L20.7054 28.1197L20.7925 28.047L20.8789 27.9735L20.9644 27.899L21.0491 27.8239L21.133 27.7479L21.2161 27.6712L21.2984 27.5936L21.3799 27.5153L21.4604 27.4363L21.5402 27.3563L21.6192 27.2757L21.6973 27.1944L21.7745 27.1123L21.8508 27.0295L21.9262 26.9461L22.0009 26.8616L22.0745 26.7768L22.1474 26.6911L22.2193 26.6049L22.2903 26.5179L22.3603 26.4303L22.4294 26.342L22.4977 26.2531L22.565 26.1636L22.6314 26.0734L22.6968 25.9827L22.7613 25.8912L22.8249 25.7992L22.8873 25.7068L22.949 25.6136L23.0095 25.52L23.0692 25.4257L23.128 25.3309L23.1856 25.2357L23.2422 25.1399L23.298 25.0434L23.3526 24.9467L23.4063 24.8494L23.459 24.7515L23.5106 24.6534L23.5613 24.5545L23.611 24.4553L23.6595 24.3559L23.7071 24.2558L23.7537 24.1552L23.7992 24.0544L23.8437 23.9532L23.8872 23.8516L23.9295 23.7497L23.9709 23.6472L24.0112 23.5444L24.0504 23.4416L24.0886 23.338L24.1257 23.2344L24.1618 23.1303L24.1968 23.026L24.2308 22.9213L24.2635 22.8167L24.2954 22.7113L24.3261 22.606L24.3557 22.5004L24.3843 22.3946L24.4118 22.2884L24.4382 22.1822L24.4635 22.0757L24.4878 21.9689L24.511 21.8621L24.5331 21.755L24.554 21.648L24.5739 21.5405L24.5927 21.4332L24.6104 21.3256L24.6271 21.2178L24.6426 21.1101L24.6571 21.0022L24.6704 20.8944L24.6828 20.7861L24.6939 20.6782L24.704 20.57L24.713 20.462L24.7209 20.3536L24.7278 20.2457L24.7335 20.1374L24.7382 20.029L24.7417 19.9209L24.7443 19.8131L24.7456 19.7048L24.746 19.5967L24.7452 19.4888L24.7434 19.3809L24.7404 19.273L24.7364 19.1656L24.7313 19.0577L24.7252 18.9503L24.7179 18.8429L24.7096 18.7359L24.7003 18.6287L24.6899 18.5219L24.6784 18.4151L24.6658 18.3086L24.6522 18.2022L24.6375 18.0962L24.6217 17.9901L24.605 17.8844L24.5872 17.7791L24.5683 17.6738L24.5483 17.5688L24.5274 17.4642L24.5053 17.3596L24.4824 17.2557L24.4583 17.1517L24.4333 17.0483L24.4071 16.9449L24.38 16.8422L24.3519 16.7396L24.3227 16.6373L24.2926 16.5356L24.2615 16.4342L24.2293 16.3329L24.1962 16.2324L24.162 16.132L24.127 16.0322L24.0908 15.9325L24.0538 15.8336L24.0157 15.7349L23.9767 15.6367L23.9368 15.5391L23.896 15.4419L23.854 15.3449L23.8113 15.2488L23.7675 15.1528L23.7229 15.0576L23.6773 14.9628L23.6307 14.8684L23.5834 14.7747L23.535 14.6815L23.4857 14.5887L23.4357 14.4968L23.3846 14.4051L23.3327 14.3142L23.2799 14.2236L23.2263 14.134L23.1717 14.0447L23.1164 13.9561L23.0601 13.868L23.003 13.7806L22.9452 13.694L22.8864 13.6078L22.8268 13.5223L22.7664 13.4375L22.7052 13.3534L22.6432 13.2698L22.5804 13.1871L22.5168 13.1049L22.4524 13.0235L22.3873 12.9428L22.3213 12.8627L22.2546 12.7834L22.1872 12.7048L22.1192 12.6269L22.0503 12.5498L21.9805 12.4733L21.9103 12.3978L21.839 12.3228L21.7674 12.2488L21.6949 12.1754L21.6219 12.1028L21.5478 12.0309L21.4735 11.96L21.3983 11.8898L21.3224 11.8203L21.2461 11.7518L21.1691 11.684L21.0911 11.6169L21.0128 11.5508L20.9339 11.4854L20.8543 11.421L20.7741 11.3573L20.6935 11.2946L20.612 11.2325L20.5303 11.1715L20.4478 11.1113L20.3648 11.0519L20.2814 10.9934L20.1971 10.9357L20.1128 10.8791L20.0275 10.8232L19.942 10.7682L19.8558 10.7141L19.7692 10.6609L19.6822 10.6087L19.5948 10.5575L19.5066 10.5068L19.4184 10.4574L19.3295 10.4088L19.2402 10.3611L19.1506 10.3144L19.0604 10.2686L18.9699 10.2236L18.879 10.1797L18.7877 10.1367L18.6961 10.0947L18.6041 10.0535L18.5088 10.0121L18.4192 9.97422L18.3259 9.93586L18.2328 9.89869L18.1389 9.86222L18.045 9.82694L17.9507 9.7925L17.8563 9.75911L17.7614 9.72656L17.6664 9.69513L17.571 9.66461L17.4754 9.63507L17.3798 9.60658L17.2837 9.57897L17.1873 9.55232L17.091 9.52675L16.9946 9.50215L16.8975 9.47845L16.8007 9.45585L16.7035 9.43415L16.6063 9.4135L16.5087 9.39379L16.4113 9.37511L16.3136 9.3574L16.2159 9.34072L16.1178 9.32497L16.02 9.31026L15.9219 9.29653L15.8237 9.28378L15.7256 9.27204L15.6274 9.2613L15.5291 9.25154L15.4308 9.24278L15.3324 9.235L15.2339 9.22821L15.1358 9.22243L15.0375 9.21763L14.9389 9.21382L14.8409 9.211L14.7426 9.20917L14.6444 9.20833L14.5461 9.20847L14.5264 9.2087L14.5574 11.8842L14.6132 11.884L14.6849 11.8844L14.7567 11.8855L14.8286 11.8874L14.9005 11.89L14.9724 11.8933L15.0443 11.8974L15.1163 11.9022L15.1882 11.9077L15.2602 11.9139L15.3322 11.9209L15.4041 11.9286L15.4761 11.9371L15.548 11.9463L15.6198 11.9561L15.6917 11.9668L15.7635 11.9782L15.8352 11.9903L15.9069 12.0032L15.9784 12.0168L16.0499 12.0311L16.1214 12.0461L16.1927 12.0619L16.264 12.0784L16.335 12.0957L16.4061 12.1137L16.4769 12.1324L16.5476 12.1518L16.6182 12.172L16.6887 12.1929L16.7591 12.2146L16.8292 12.2369L16.8991 12.26L16.9689 12.2838L17.0386 12.3084L17.1079 12.3336L17.1772 12.3596L17.2461 12.3863L17.315 12.4137L17.3835 12.4419L17.4519 12.4707L17.52 12.5003L17.5878 12.5305L17.6554 12.5616L17.7228 12.5932L17.7898 12.6256L17.8567 12.6587L17.9232 12.6925L17.9894 12.727L18.0554 12.7622L18.121 12.7981L18.1863 12.8347L18.2513 12.8719L18.316 12.9099L18.3804 12.9485L18.4444 12.9879L18.508 13.0278L18.5713 13.0685L18.6343 13.1099L18.6969 13.1519L18.7591 13.1945L18.8209 13.2378L18.8824 13.2819L18.9434 13.3264L19.004 13.3717L19.0642 13.4177L19.1241 13.4643L19.1834 13.5115L19.2424 13.5594L19.3009 13.6078L19.359 13.657L19.4166 13.7068L19.4738 13.7571L19.5305 13.808L19.5868 13.8596L19.6425 13.9119L19.6977 13.9646L19.7525 14.0181L19.8068 14.072L19.8606 14.1266L19.9139 14.1818L19.9666 14.2376L20.0189 14.2938L20.0706 14.3508L20.1217 14.4082L20.1724 14.4663L20.2225 14.5248L20.272 14.5839L20.321 14.6436L20.3694 14.7038L20.4173 14.7645L20.4645 14.8258L20.5112 14.8876L20.5573 14.9499L20.6028 15.0127L20.6477 15.076L20.692 15.1399L20.7357 15.2042L20.7788 15.269L20.8212 15.3343L20.863 15.4001L20.9042 15.4664L20.9448 15.5331L20.9847 15.6002L21.024 15.6678L21.0626 15.7359L21.1006 15.8044L21.1379 15.8733L21.1745 15.9427L21.2105 16.0125L21.2458 16.0827L21.2803 16.1533L21.3143 16.2244L21.3475 16.2958L21.38 16.3675L21.4118 16.4398L21.443 16.5123L21.4734 16.5852L21.5031 16.6585L21.5321 16.7322L21.5604 16.8062L21.5879 16.8804L21.6147 16.9551L21.6408 17.0301L21.6661 17.1054L21.6908 17.181L21.7146 17.2569L21.7377 17.3331L21.7601 17.4096L21.7817 17.4864L21.8026 17.5635L21.8226 17.6408L21.842 17.7184L21.8605 17.7962L21.8783 17.8743L21.8954 17.9526L21.9116 18.0312L21.927 18.1099L21.9417 18.1889L21.9556 18.2681L21.9687 18.3475L21.981 18.427L21.9925 18.5068L22.0033 18.5867L22.0132 18.6667L22.0223 18.747L22.0306 18.8275L22.0381 18.908L22.0449 18.9887L22.0508 19.0695L22.0559 19.1504L22.0602 19.2314L22.0637 19.3125L22.0663 19.3938L22.0682 19.475L22.0692 19.5564L22.0694 19.6379L22.0688 19.7194L22.0674 19.801L22.0651 19.8826L22.062 19.9643L22.0581 20.0459L22.0534 20.1276L22.0479 20.2093L22.0415 20.291L22.0342 20.3727L22.0262 20.4544L22.0173 20.536L22.0077 20.6177L21.9972 20.6993L21.9858 20.7808L21.9736 20.8623L21.9606 20.9437L21.9468 21.0251L21.9321 21.1063L21.9166 21.1875L21.9003 21.2686L21.8831 21.3496L21.8652 21.4304L21.8464 21.5111L21.8267 21.5917L21.8063 21.6722L21.785 21.7525L21.7629 21.8326L21.74 21.9126L21.7162 21.9924L21.6917 22.072L21.6662 22.1515L21.64 22.2307L21.613 22.3097L21.5852 22.3885L21.5565 22.467L21.527 22.5454L21.4968 22.6235L21.4657 22.7013L21.4339 22.779L21.4011 22.8562L21.3677 22.9333L21.3334 23.0101L21.2983 23.0866L21.2625 23.1627L21.2258 23.2386L21.1883 23.3141L21.15 23.3894L21.111 23.4642L21.0712 23.5387L21.0306 23.6129L20.9893 23.6868L20.9472 23.7602L20.9043 23.8334L20.8606 23.906L20.8162 23.9784L20.771 24.0503L20.7251 24.1219L20.6783 24.1929L20.6309 24.2636L20.5828 24.3339L20.5338 24.4037L20.4842 24.473L20.4338 24.542L20.3827 24.6105L20.3308 24.6784L20.2783 24.7459L20.225 24.813L20.171 24.8795L20.1163 24.9455L20.0609 25.0111L20.0048 25.0761L19.948 25.1406L19.8905 25.2045L19.8324 25.268L19.7736 25.3309L19.7141 25.3932L19.6539 25.455L19.5931 25.5162L19.5316 25.5769L19.4694 25.6369L19.4067 25.6964L19.3432 25.7553L19.2791 25.8135L19.2145 25.8712L19.1491 25.9283L19.0832 25.9848L19.0167 26.0406L18.9496 26.0958L18.8817 26.1503L18.8134 26.2042L18.7445 26.2575L18.675 26.31L18.6048 26.362L18.5342 26.4133L18.463 26.4638L18.3912 26.5137L18.3188 26.563L18.246 26.6115L18.1726 26.6593L18.0987 26.7064L18.0242 26.7527L17.9492 26.7984L17.8737 26.8434L17.7978 26.8875L17.7213 26.931L17.6443 26.9738L17.5668 27.0158L17.4889 27.057L17.4105 27.0975L17.3317 27.1372L17.2524 27.1762L17.1726 27.2143L17.0924 27.2517L17.0118 27.2883L16.9308 27.3241L16.8493 27.3591L16.7675 27.3934L16.6852 27.4268L16.6026 27.4594L16.5196 27.4913L16.4362 27.5223L16.3524 27.5525L16.2683 27.5818L16.1838 27.6104L16.099 27.638L16.0139 27.6649L15.9284 27.6909L15.8426 27.7161L15.7565 27.7404L15.6701 27.7639L15.5834 27.7865L15.4965 27.8083L15.4092 27.8292L15.3217 27.8492L15.2339 27.8684L15.1459 27.8867L15.0576 27.9041L14.9692 27.9207L14.8804 27.9364L14.7915 27.9511L14.7024 27.965L14.613 27.978L14.5235 27.9901L14.4338 28.0014L14.3439 28.0117L14.2539 28.0211L14.1637 28.0297L14.0734 28.0373L13.9829 28.044L13.8923 28.0498L13.8016 28.0547L13.7108 28.0587L13.6199 28.0618L13.5289 28.064L13.4378 28.0652L13.3466 28.0656L13.2554 28.065L13.1642 28.0635L13.0729 28.0611L12.9815 28.0577L12.8902 28.0535L12.7988 28.0483L12.7074 28.0422L12.616 28.0352L12.5247 28.0272L12.4333 28.0183L12.342 28.0085L12.2507 27.9978L12.1595 27.9862L12.0683 27.9736L11.9772 27.9601L11.8862 27.9457L11.7953 27.9303L11.7044 27.914L11.6137 27.8969L11.5231 27.8787L11.4327 27.8596L11.3423 27.8397L11.2521 27.8188L11.1621 27.797L11.0722 27.7742L10.9825 27.7506L10.8929 27.726L10.8035 27.7005L10.7145 27.6741L10.6255 27.6468L10.5368 27.6186L10.4483 27.5894L10.3601 27.5594L10.2721 27.5285L10.1843 27.4966L10.0969 27.4639L10.0097 27.4302L9.92276 27.3956L9.83614 27.3602L9.7498 27.3238L9.66379 27.2865L9.57813 27.2485L9.49281 27.2094L9.40776 27.1695L9.32312 27.1288L9.23883 27.0871L9.15487 27.0446L9.07126 27.0012L8.98813 26.9569L8.90534 26.9118L8.82296 26.8658L8.74099 26.8189L8.65944 26.7712L8.57829 26.7227L8.49762 26.6733L8.41736 26.623L8.33758 26.572L8.25828 26.5201L8.17946 26.4673L8.10112 26.4137L8.02326 26.3593L7.94587 26.3042L7.86904 26.2482L7.79268 26.1913L7.71687 26.1337L7.64154 26.0753L7.56682 26.016L7.49265 25.9561L7.41903 25.8952L7.34596 25.8337L7.27343 25.7713L7.20152 25.7083L7.13023 25.6444L7.05948 25.5797L6.98935 25.5144L6.9199 25.4483L6.851 25.3814L6.78272 25.3138L6.71512 25.2455L6.6482 25.1765L6.5819 25.1067L6.51622 25.0363L6.45122 24.9651L6.38697 24.8932L6.32334 24.8207L6.26039 24.7474L6.19819 24.6735L6.13662 24.599L6.07586 24.5237L6.01572 24.4478L5.95639 24.3713L5.89776 24.2941L5.83987 24.2162L5.78274 24.1377L5.72629 24.0587L5.67067 23.979L5.61586 23.8987L5.56174 23.8178L5.50844 23.7363L5.45594 23.6542L5.40422 23.5716L5.35329 23.4883L5.30318 23.4046L5.25387 23.3202L5.20539 23.2354L5.15773 23.1499L5.1109 23.064L5.0649 22.9775L5.01975 22.8905L4.97544 22.803L4.93199 22.7151L4.8894 22.6266L4.84767 22.5376L4.8068 22.4482L4.76682 22.3583L4.72771 22.268L4.68949 22.1772L4.65216 22.0859L4.61572 21.9943L4.58019 21.9022L4.54555 21.8097L4.51183 21.7168L4.47901 21.6235L4.44712 21.5298L4.41615 21.4358L4.38611 21.3414L4.357 21.2466L4.32882 21.1515L4.30158 21.0561L4.27529 20.9603L4.24994 20.8642L4.22555 20.7677L4.20211 20.6711L4.17962 20.574L4.1581 20.4767L4.13754 20.3792L4.11795 20.2814L4.09933 20.1833L4.08169 20.0849L4.06502 19.9864L4.04934 19.8876L4.03463 19.7886L4.02091 19.6894L4.00819 19.59L3.99645 19.4904L3.98571 19.3907L3.97596 19.2908L3.96721 19.1907L3.95946 19.0905L3.95272 18.9901L3.94697 18.8896L3.94224 18.789L3.93851 18.6884L3.93579 18.5876L3.93408 18.4867L3.93338 18.3857L3.9337 18.2847L3.93503 18.1836L3.93739 18.0825L3.94074 17.9814L3.94513 17.8802L3.95054 17.779L3.95695 17.6778L3.9644 17.5766L3.97285 17.4754L3.98234 17.3743L3.99285 17.2732L4.00437 17.1722L4.01692 17.0712L4.03049 16.9702L4.04507 16.8694L4.06069 16.7686L4.07731 16.668L4.09497 16.5675L4.11364 16.467L4.13333 16.3667L4.15403 16.2666L4.17576 16.1666L4.19851 16.0667L4.22226 15.9671L4.24703 15.8676L4.27282 15.7683L4.29961 15.6692L4.32742 15.5704L4.35624 15.4717L4.38606 15.3733L4.41689 15.2751L4.44872 15.1773L4.48154 15.0796L4.51538 14.9822L4.55021 14.8851L4.58602 14.7883L4.62283 14.6919L4.66064 14.5957L4.69942 14.4999L4.7392 14.4044L4.77995 14.3092L4.82169 14.2144L4.86439 14.12L4.90807 14.0259L4.95271 13.9322L4.99833 13.839L5.0449 13.7461L5.09244 13.6537L5.14092 13.5616L5.19036 13.4701L5.24074 13.379L5.29207 13.2882L5.34433 13.1981L5.39754 13.1083L5.45167 13.0191L5.50673 12.9303L5.5627 12.8421L5.61963 12.7543L5.67737 12.6671L5.73615 12.5805L5.79574 12.4943L5.85623 12.4087L5.91767 12.3237L5.97993 12.2392L6.04315 12.1554L6.1072 12.072L6.17213 11.9894L6.23788 11.9073L6.30452 11.8259L6.37205 11.745L6.44041 11.6648L6.50958 11.5853L6.57964 11.5064L6.65046 11.4281L6.72216 11.3506L6.79469 11.2736L6.86797 11.1975L6.94207 11.1219L7.01699 11.0471L7.09273 10.973L7.16923 10.8996L7.24647 10.827L7.32454 10.7551L7.40336 10.6839L7.48287 10.6135L7.56319 10.5439L7.64427 10.475L7.72604 10.4069L7.80855 10.3396L7.89182 10.2731L7.97577 10.2073L8.06041 10.1424L8.1458 10.0783L8.23181 10.015L8.31849 9.95259L8.40594 9.89099L8.49399 9.83023L8.58267 9.77038L8.67209 9.7113L8.76207 9.65313L8.85273 9.59583L8.944 9.5394L9.03589 9.48386L9.12833 9.42922L9.22145 9.37547L9.31512 9.32263L9.40933 9.27071L9.50416 9.21971L9.59954 9.16963L9.69547 9.12049L9.79194 9.07228L9.88896 9.02501L9.98653 8.9787L10.0846 8.93334L10.1832 8.88894L10.2822 8.84551L10.3818 8.80306L10.4818 8.76157L10.5823 8.72108L10.6833 8.68157L10.7847 8.64306L10.8865 8.60555L10.9888 8.56903L11.0915 8.53353L11.1946 8.49904L11.2981 8.46557L11.402 8.43312L11.5063 8.4017L11.611 8.37131L11.7159 8.34195L11.8213 8.31364L11.927 8.28637L12.0331 8.26014L12.1394 8.23498L12.2461 8.21086L12.353 8.1878L12.4602 8.1658L12.5678 8.14488L12.6755 8.12502L12.7836 8.10623L12.8919 8.08853L13.0004 8.07189L13.1091 8.05635L13.2181 8.04188L13.2587 8.03689ZM13.3047 12.0053L13.2733 9.30032L13.1841 9.31309L13.0881 9.32781L12.992 9.34351L12.8965 9.36011L12.801 9.37772L12.7059 9.39624L12.611 9.4157L12.5164 9.43608L12.422 9.45742L12.3279 9.47971L12.234 9.50292L12.1406 9.52704L12.0472 9.55213L11.9575 9.57718L11.8619 9.60497L11.7696 9.63276L11.6777 9.66146L11.5863 9.691L11.4951 9.72152L11.4042 9.75295L11.3138 9.78522L11.2238 9.81833L11.1342 9.85242L11.0449 9.88728L10.9561 9.92312L10.8679 9.95973L10.7797 9.99732L10.6922 10.0357L10.6051 10.0749L10.5186 10.1149L10.4323 10.1559L10.3465 10.1977L10.2614 10.2402L10.1765 10.2836L10.0925 10.3278L10.0086 10.3729L9.92557 10.4187L9.84264 10.4655L9.76054 10.5128L9.67898 10.561L9.59783 10.6101L9.5173 10.6599L9.43718 10.7106L9.35788 10.7618L9.27892 10.8139L9.20072 10.8668L9.12306 10.9203L9.04595 10.9747L8.96932 11.0299L8.89357 11.0855L8.81824 11.1422L8.74353 11.1994L8.6695 11.2574L8.59615 11.316L8.52328 11.3754L8.45123 11.4354L8.3798 11.4961L8.30892 11.5576L8.23892 11.6196L8.16941 11.6824L8.10057 11.7458L8.0325 11.8098L7.96517 11.8744L7.89832 11.9397L7.83243 12.0055L7.76716 12.072L7.7025 12.1392L7.63866 12.2069L7.57551 12.2753L7.51311 12.3442L7.45146 12.4136L7.3905 12.4837L7.33022 12.5544L7.27097 12.6255L7.21226 12.6972L7.15431 12.7695L7.09718 12.8423L7.04087 12.9155L6.98517 12.9894L6.93037 13.0637L6.87632 13.1385L6.82308 13.2138L6.77061 13.2896L6.71902 13.3658L6.66818 13.4425L6.61809 13.5197L6.56883 13.5973L6.52046 13.6753L6.47291 13.7538L6.42611 13.8328L6.38013 13.9121L6.33504 13.9918L6.2907 14.0719L6.24732 14.1523L6.2047 14.2332L6.16282 14.3146L6.12197 14.396L6.08188 14.4781L6.04267 14.5604L6.00429 14.6429L5.9668 14.726L5.93012 14.8092L5.89434 14.8928L5.85937 14.9766L5.82537 15.0608L5.79218 15.1452L5.75982 15.23L5.72835 15.3149L5.69783 15.4001L5.66807 15.4857L5.63933 15.5713L5.61135 15.6572L5.58432 15.7434L5.55812 15.8298L5.53287 15.9163L5.50844 16.003L5.48497 16.0899L5.46233 16.1771L5.4406 16.2643L5.41977 16.3517L5.39983 16.4393L5.38078 16.5269L5.36261 16.6148L5.34536 16.7027L5.32899 16.7907L5.31351 16.8789L5.29894 16.9671L5.28525 17.0554L5.27248 17.1437L5.26058 17.2322L5.24959 17.3206L5.23949 17.4092L5.23029 17.4977L5.22198 17.5864L5.21457 17.675L5.20806 17.7635L5.20244 17.8522L5.1977 17.9409L5.19386 18.0294L5.19092 18.118L5.18886 18.2064L5.1877 18.2949L5.18742 18.3834L5.18803 18.4717L5.18952 18.56L5.19191 18.6482L5.19516 18.7363L5.19931 18.8243L5.20433 18.9122L5.21023 18.9999L5.21701 19.0877L5.22466 19.1752L5.23318 19.2625L5.24258 19.3497L5.25284 19.4368L5.26397 19.5238L5.27595 19.6104L5.28881 19.697L5.30252 19.7833L5.31708 19.8694L5.3325 19.9554L5.34877 20.041L5.36589 20.1265L5.38384 20.2117L5.40265 20.2968L5.42227 20.3814L5.44276 20.4659L5.46406 20.5501L5.48621 20.634L5.50913 20.7176L5.53294 20.801L5.5575 20.884L5.58295 20.9667L5.60916 21.0492L5.63618 21.1312L5.66403 21.2129L5.69263 21.2943L5.72205 21.3754L5.75229 21.4561L5.78329 21.5364L5.81504 21.6163L5.84761 21.6959L5.88093 21.7751L5.91507 21.8539L5.94989 21.9322L5.98554 22.0102L6.02194 22.0877L6.05903 22.1649L6.09693 22.2415L6.13552 22.3178L6.17486 22.3936L6.21496 22.4689L6.25574 22.5438L6.29727 22.6182L6.33948 22.6922L6.38245 22.7656L6.42611 22.8386L6.47044 22.9111L6.51546 22.983L6.56124 23.0546L6.60756 23.1254L6.6547 23.1959L6.70239 23.2657L6.75083 23.3351L6.79989 23.4039L6.84963 23.4722L6.89999 23.5399L6.95103 23.6071L7.00262 23.6736L7.05489 23.7396L7.10778 23.8051L7.16129 23.87L7.21541 23.9342L7.27015 23.998L7.32543 24.061L7.38133 24.1235L7.43778 24.1853L7.49484 24.2465L7.55245 24.3071L7.61068 24.3671L7.66938 24.4265L7.72871 24.4852L7.78857 24.5433L7.84885 24.6007L7.90982 24.6576L7.97119 24.7136L8.03311 24.7691L8.09558 24.8239L8.15853 24.878L8.22195 24.9315L8.28586 24.9842L8.35024 25.0363L8.41511 25.0876L8.48045 25.1384L8.54627 25.1884L8.61243 25.2376L8.67907 25.2862L8.74619 25.3341L8.81373 25.3813L8.88174 25.4278L8.95009 25.4735L9.01885 25.5185L9.08803 25.5628L9.15754 25.6063L9.22747 25.6492L9.29781 25.6912L9.36842 25.7326L9.43951 25.7731L9.5108 25.813L9.58257 25.8521L9.65462 25.8905L9.72694 25.928L9.79967 25.9649L9.87275 26.0009L9.94603 26.0363L10.0196 26.0708L10.0935 26.1046L10.1676 26.1376L10.2421 26.1698L10.3168 26.2013L10.3918 26.2319L10.4669 26.2618L10.5424 26.2909L10.6181 26.3193L10.6939 26.3469L10.77 26.3736L10.8464 26.3996L10.9229 26.4248L10.9996 26.4492L11.0765 26.4728L11.1535 26.4956L11.2307 26.5177L11.3081 26.5389L11.3856 26.5594L11.4633 26.579L11.5411 26.5978L11.619 26.6159L11.6971 26.6332L11.7752 26.6496L11.8534 26.6652L11.9318 26.6801L12.0102 26.6941L12.0887 26.7074L12.1672 26.7198L12.2459 26.7315L12.3245 26.7424L12.4032 26.7525L12.482 26.7617L12.5607 26.7702L12.6396 26.7778L12.7184 26.7846L12.7972 26.7907L12.876 26.796L12.9548 26.8004L13.0335 26.8041L13.1123 26.807L13.191 26.8091L13.2696 26.8103L13.3483 26.8108L13.4268 26.8105L13.5053 26.8094L13.5837 26.8076L13.662 26.8049L13.7402 26.8015L13.8183 26.7973L13.8963 26.7923L13.9742 26.7865L14.052 26.7799L14.1296 26.7725L14.2071 26.7644L14.2845 26.7555L14.3616 26.7459L14.4387 26.7354L14.5155 26.7243L14.5922 26.7123L14.6687 26.6996L14.7449 26.6862L14.8211 26.6719L14.897 26.6569L14.9726 26.6412L15.0482 26.6247L15.1233 26.6075L15.1983 26.5896L15.273 26.5708L15.3475 26.5514L15.4218 26.5312L15.4957 26.5103L15.5694 26.4887L15.6428 26.4664L15.7159 26.4433L15.7887 26.4195L15.8613 26.395L15.9335 26.3698L16.0054 26.3439L16.077 26.3173L16.1482 26.29L16.2191 26.262L16.2896 26.2333L16.3599 26.2039L16.4297 26.1739L16.4992 26.1432L16.5684 26.1118L16.6371 26.0797L16.7055 26.047L16.7735 26.0136L16.841 25.9797L16.9083 25.9449L16.975 25.9096L17.0414 25.8735L17.1072 25.837L17.1728 25.7998L17.2379 25.7619L17.3025 25.7234L17.3668 25.6843L17.4305 25.6446L17.4938 25.6042L17.5567 25.5633L17.619 25.5218L17.6809 25.4797L17.7424 25.4369L17.8033 25.3937L17.8636 25.3499L17.9237 25.3054L17.9831 25.2605L18.0421 25.215L18.1006 25.1688L18.1583 25.1223L18.2159 25.075L18.2728 25.0273L18.329 24.9791L18.3849 24.9302L18.4402 24.881L18.4948 24.8313L18.5492 24.7808L18.6027 24.7301L18.6558 24.6788L18.7083 24.627L18.7602 24.5748L18.8115 24.522L18.8624 24.4688L18.9126 24.4151L18.9621 24.361L19.0112 24.3064L19.0597 24.2514L19.1075 24.196L19.1548 24.14L19.2014 24.0838L19.2474 24.0271L19.2929 23.9698L19.3376 23.9124L19.3818 23.8544L19.4254 23.7961L19.4684 23.7373L19.5107 23.6782L19.5523 23.6188L19.5934 23.5588L19.6338 23.4987L19.6735 23.4382L19.7127 23.3772L19.751 23.3161L19.7889 23.2545L19.8261 23.1925L19.8626 23.1304L19.8984 23.0679L19.9337 23.0049L19.9681 22.942L20.0021 22.8784L20.0353 22.8148L20.0677 22.7509L20.0996 22.6865L20.1307 22.6222L20.1613 22.5573L20.191 22.4925L20.2203 22.4271L20.2486 22.3618L20.2764 22.2959L20.3035 22.2301L20.3299 22.164L20.3556 22.0977L20.3806 22.0311L20.4049 21.9645L20.4286 21.8975L20.4515 21.8305L20.4737 21.7633L20.4953 21.6959L20.5161 21.6282L20.5363 21.5605L20.5557 21.4928L20.5745 21.4247L20.5925 21.3567L20.6099 21.2885L20.6265 21.2201L20.6424 21.1518L20.6577 21.0831L20.6722 21.0145L20.6861 20.9459L20.6991 20.8772L20.7116 20.8084L20.7233 20.7393L20.7343 20.6705L20.7446 20.6015L20.7542 20.5324L20.7631 20.4634L20.7713 20.3943L20.7789 20.3251L20.7856 20.2562L20.7918 20.1869L20.7972 20.1178L20.8018 20.0488L20.8059 19.9797L20.8092 19.9106L20.8118 19.8417L20.8137 19.7725L20.8148 19.7038L20.8154 19.6348L20.8152 19.566L20.8144 19.4972L20.8128 19.4286L20.8105 19.36L20.8076 19.2914L20.804 19.2232L20.7997 19.1547L20.7947 19.0865L20.7891 19.0186L20.7827 18.9505L20.7756 18.8828L20.7679 18.8149L20.7596 18.7475L20.7505 18.6801L20.7408 18.6127L20.7304 18.5456L20.7194 18.4788L20.7077 18.4121L20.6953 18.3456L20.6822 18.279L20.6686 18.2129L20.6543 18.1471L20.6393 18.0813L20.6236 18.0156L20.6074 17.9505L20.5904 17.8852L20.5729 17.8204L20.5547 17.7558L20.5359 17.6915L20.5165 17.6273L20.4963 17.5634L20.4757 17.4999L20.4544 17.4366L20.4324 17.3734L20.4099 17.3108L20.3867 17.2483L20.363 17.1862L20.3386 17.1242L20.3137 17.0626L20.2881 17.0014L20.2619 16.9404L20.2353 16.8799L20.208 16.8197L20.18 16.7596L20.1515 16.6999L20.1226 16.6407L20.0929 16.5817L20.0628 16.5233L20.032 16.4652L20.0007 16.4072L19.969 16.3498L19.9365 16.2927L19.9036 16.2361L19.8701 16.1796L19.8362 16.1239L19.8016 16.0682L19.7666 16.0132L19.7311 15.9585L19.695 15.9043L19.6583 15.8503L19.6212 15.7969L19.5837 15.744L19.5456 15.6913L19.507 15.6392L19.4679 15.5874L19.4285 15.5363L19.3884 15.4854L19.3479 15.4351L19.3069 15.3851L19.2655 15.3357L19.2237 15.2868L19.1813 15.2382L19.1386 15.1903L19.0954 15.1427L19.0518 15.0958L19.0076 15.0491L18.9632 15.0031L18.9182 14.9574L18.8729 14.9124L18.8273 14.8678L18.7812 14.8237L18.7346 14.7801L18.6876 14.7372L18.6404 14.6947L18.5925 14.6525L18.5447 14.6112L18.4962 14.5701L18.4474 14.5297L18.3983 14.4899L18.3487 14.4504L18.2989 14.4117L18.2489 14.3735L18.1983 14.3357L18.1473 14.2984L18.0963 14.2619L18.0447 14.2257L17.9931 14.1904L17.941 14.1554L17.8886 14.1209L17.8359 14.0871L17.783 14.0539L17.7297 14.0211L17.6762 13.9891L17.6223 13.9574L17.5685 13.9266L17.5141 13.8962L17.4595 13.8663L17.4047 13.837L17.3498 13.8085L17.2945 13.7803L17.239 13.7528L17.1833 13.7259L17.1276 13.6997L17.0712 13.6739L17.0151 13.6488L16.9586 13.6243L16.9018 13.6003L16.8449 13.577L16.788 13.5543L16.7308 13.5322L16.6733 13.5105L16.6158 13.4897L16.5581 13.4693L16.5002 13.4496L16.4424 13.4305L16.3843 13.412L16.3262 13.3941L16.2677 13.3767L16.2093 13.36L16.1508 13.344L16.0922 13.3285L16.0334 13.3136L15.9745 13.2993L15.9156 13.2856L15.8568 13.2726L15.7977 13.2602L15.7384 13.2483L15.6795 13.2371L15.6202 13.2265L15.561 13.2165L15.5015 13.207L15.4424 13.1983L15.3828 13.19L15.3236 13.1825L15.2643 13.1755L15.2049 13.1692L15.1455 13.1634L15.0861 13.1582L15.0269 13.1537L14.9674 13.1498L14.9081 13.1464L14.849 13.1437L14.7895 13.1415L14.7304 13.14L14.6713 13.1391L14.6123 13.1387L14.5719 13.1388L14.6025 15.7816L14.6208 15.7817L14.6547 15.7822L14.6887 15.783L14.7228 15.7841L14.7568 15.7858L14.791 15.7877L14.8251 15.7899L14.8593 15.7926L14.8936 15.7956L14.9278 15.7989L14.9621 15.8026L14.9964 15.8067L15.0307 15.8112L15.065 15.816L15.0994 15.8212L15.1337 15.8268L15.1681 15.8327L15.2023 15.839L15.2367 15.8458L15.271 15.8528L15.3052 15.8602L15.3395 15.868L15.3738 15.8762L15.4079 15.8847L15.4422 15.8936L15.4763 15.9029L15.5104 15.9126L15.5444 15.9226L15.5784 15.933L15.6124 15.9438L15.6463 15.955L15.6801 15.9666L15.7139 15.9785L15.7476 15.9907L15.7812 16.0034L15.8147 16.0164L15.8482 16.0298L15.8816 16.0436L15.9148 16.0577L15.948 16.0722L15.9811 16.0871L16.0141 16.1024L16.047 16.118L16.0798 16.134L16.1124 16.1503L16.145 16.167L16.1773 16.1842L16.2096 16.2016L16.2418 16.2195L16.2738 16.2377L16.3057 16.2562L16.3374 16.2751L16.369 16.2944L16.4005 16.314L16.4317 16.3341L16.4629 16.3544L16.4938 16.3751L16.5246 16.3962L16.5552 16.4176L16.5857 16.4394L16.6159 16.4615L16.646 16.484L16.6759 16.5068L16.7056 16.53L16.7351 16.5535L16.7645 16.5774L16.7935 16.6016L16.8224 16.6261L16.8511 16.651L16.8796 16.6762L16.9079 16.7018L16.9359 16.7277L16.9637 16.7539L16.9913 16.7805L17.0186 16.8073L17.0457 16.8346L17.0726 16.8621L17.0992 16.8899L17.1256 16.9181L17.1517 16.9466L17.1775 16.9754L17.2031 17.0045L17.2285 17.0339L17.2535 17.0637L17.2783 17.0937L17.3029 17.124L17.3271 17.1547L17.351 17.1856L17.3747 17.2168L17.3981 17.2484L17.4212 17.2802L17.444 17.3123L17.4665 17.3447L17.4887 17.3774L17.5106 17.4103L17.5321 17.4436L17.5534 17.477L17.5744 17.5108L17.595 17.5449L17.6153 17.5792L17.6353 17.6137L17.655 17.6485L17.6743 17.6836L17.6933 17.7189L17.712 17.7545L17.7303 17.7904L17.7482 17.8264L17.7659 17.8627L17.7831 17.8992L17.8 17.936L17.8166 17.973L17.8328 18.0102L17.8487 18.0477L17.8641 18.0853L17.8792 18.1232L17.894 18.1613L17.9083 18.1996L17.9223 18.2381L17.936 18.2768L17.9492 18.3157L17.962 18.3548L17.9745 18.394L17.9865 18.4335L17.9982 18.4731L18.0095 18.513L18.0204 18.553L18.0309 18.5931L18.0411 18.6334L18.0507 18.674L18.06 18.7146L18.0689 18.7554L18.0774 18.7964L18.0855 18.8375L18.0931 18.8786L18.1003 18.9201L18.1072 18.9616L18.1136 19.0032L18.1195 19.045L18.1251 19.0868L18.1302 19.1288L18.1349 19.171L18.1392 19.2132L18.1431 19.2555L18.1465 19.2979L18.1495 19.3404L18.152 19.383L18.1542 19.4257L18.1558 19.4685L18.1571 19.5113L18.1579 19.5542L18.1583 19.5972L18.1581 19.6402L18.1576 19.6833L18.1567 19.7265L18.1553 19.7697L18.1534 19.8129L18.1511 19.8562L18.1483 19.8995L18.1451 19.9428L18.1414 19.9862L18.1373 20.0296L18.1328 20.073L18.1277 20.1165L18.1223 20.1599L18.1164 20.2034L18.11 20.2468L18.1032 20.2902L18.0959 20.3336L18.0881 20.377L18.0799 20.4204L18.0713 20.4637L18.0621 20.507L18.0526 20.5503L18.0426 20.5936L18.032 20.6368L18.0211 20.68L18.0097 20.723L17.9978 20.766L17.9855 20.809L17.9727 20.8519L17.9595 20.8947L17.9458 20.9374L17.9317 20.9801L17.9171 21.0227L17.902 21.0651L17.8864 21.1075L17.8705 21.1497L17.8541 21.1919L17.8372 21.2339L17.8199 21.2759L17.8021 21.3176L17.7838 21.3594L17.7651 21.4009L17.746 21.4422L17.7263 21.4835L17.7063 21.5246L17.6858 21.5656L17.6649 21.6064L17.6435 21.647L17.6216 21.6875L17.5994 21.7278L17.5767 21.7679L17.5535 21.8079L17.53 21.8475L17.5059 21.8872L17.4814 21.9265L17.4565 21.9656L17.4312 22.0046L17.4054 22.0433L17.3792 22.0819L17.3526 22.1202L17.3255 22.1583L17.2981 22.1961L17.2702 22.2337L17.2418 22.2711L17.2131 22.3083L17.1839 22.3452L17.1544 22.3818L17.1244 22.4182L17.094 22.4543L17.0632 22.4901L17.032 22.5257L17.0004 22.5611L16.9684 22.5961L16.936 22.6308L16.9031 22.6653L16.87 22.6994L16.8364 22.7333L16.8024 22.7669L16.768 22.8001L16.7333 22.833L16.6982 22.8656L16.6626 22.898L16.6268 22.93L16.5905 22.9616L16.5539 22.9929L16.5169 23.0239L16.4796 23.0546L16.4419 23.0848L16.4038 23.1148L16.3654 23.1444L16.3266 23.1736L16.2876 23.2025L16.2481 23.231L16.2083 23.2592L16.1682 23.2869L16.1277 23.3143L16.087 23.3413L16.0458 23.368L16.0044 23.3942L15.9626 23.42L15.9206 23.4454L15.8782 23.4705L15.8355 23.4951L15.7925 23.5194L15.7492 23.5432L15.7056 23.5666L15.6618 23.5896L15.6176 23.6122L15.5732 23.6344L15.5284 23.6561L15.4834 23.6773L15.4382 23.6982L15.3926 23.7186L15.3468 23.7386L15.3008 23.7581L15.2545 23.7772L15.2079 23.7958L15.1611 23.814L15.114 23.8317L15.0667 23.849L15.0192 23.8658L14.9715 23.8821L14.9235 23.898L14.8754 23.9133L14.827 23.9282L14.7783 23.9427L14.7295 23.9567L14.6806 23.9702L14.6314 23.9831L14.582 23.9956L14.5324 24.0076L14.4826 24.0192L14.4327 24.0301L14.3826 24.0407L14.3323 24.0507L14.2819 24.0602L14.2313 24.0693L14.1805 24.0778L14.1297 24.0858L14.0787 24.0933L14.0275 24.1003L13.9762 24.1068L13.9248 24.1127L13.8733 24.1181L13.8217 24.1231L13.7699 24.1274L13.7181 24.1314L13.6661 24.1347L13.6141 24.1375L13.5619 24.1398L13.5097 24.1416L13.4574 24.1428L13.4051 24.1435L13.3526 24.1437L13.3002 24.1433L13.2476 24.1424L13.195 24.141L13.1424 24.139L13.0897 24.1365L13.0369 24.1334L12.9842 24.1298L12.9314 24.1257L12.8787 24.121L12.8259 24.1158L12.7731 24.11L12.7203 24.1036L12.6675 24.0968L12.6147 24.0894L12.562 24.0815L12.5092 24.0729L12.4565 24.0639L12.4038 24.0543L12.3512 24.0442L12.2986 24.0335L12.2461 24.0222L12.1936 24.0105L12.1412 23.9981L12.0888 23.9852L12.0365 23.9718L11.9843 23.9578L11.9322 23.9433L11.8802 23.9282L11.8283 23.9126L11.7764 23.8964L11.7247 23.8797L11.6731 23.8625L11.6216 23.8447L11.5703 23.8264L11.519 23.8075L11.4679 23.788L11.417 23.7681L11.3662 23.7476L11.3155 23.7265L11.265 23.7049L11.2148 23.6828L11.1646 23.6601L11.1146 23.637L11.0648 23.6132L11.0152 23.5889L10.9658 23.5642L10.9166 23.5388L10.8676 23.513L10.8188 23.4866L10.7702 23.4597L10.7219 23.4323L10.6738 23.4044L10.6258 23.3759L10.5782 23.3469L10.5308 23.3174L10.4836 23.2874L10.4367 23.2569L10.39 23.2258L10.3436 23.1943L10.2975 23.1622L10.2517 23.1297L10.2062 23.0966L10.1609 23.0631L10.1159 23.029L10.0712 22.9945L10.0269 22.9595L9.98284 22.9239L9.93912 22.888L9.89567 22.8515L9.85256 22.8145L9.8098 22.7771L9.76738 22.7391L9.7253 22.7008L9.68356 22.6619L9.64217 22.6226L9.60112 22.5828L9.56047 22.5426L9.52011 22.5019L9.48022 22.4607L9.44067 22.4192L9.40146 22.3771L9.36267 22.3347L9.32428 22.2917L9.28631 22.2484L9.24868 22.2046L9.21153 22.1604L9.17472 22.1158L9.13832 22.0707L9.1024 22.0252L9.06688 21.9794L9.03178 21.9331L8.99709 21.8864L8.96288 21.8393L8.92915 21.7918L8.89583 21.7439L8.86292 21.6956L8.83049 21.647L8.79854 21.598L8.76706 21.5486L8.73607 21.4988L8.70548 21.4487L8.67545 21.3982L8.64582 21.3473L8.61674 21.2962L8.58814 21.2446L8.56002 21.1927L8.53238 21.1405L8.50528 21.0879L8.47867 21.035L8.45253 20.9818L8.42694 20.9283L8.4019 20.8744L8.37734 20.8203L8.35332 20.7658L8.32985 20.7111L8.30686 20.656L8.28442 20.6007L8.26253 20.5451L8.24118 20.4892L8.22038 20.433L8.2002 20.3766L8.18049 20.3199L8.16133 20.263L8.14272 20.2058L8.12473 20.1483L8.10728 20.0906L8.09038 20.0327L8.07403 19.9746L8.05829 19.9162L8.04317 19.8576L8.02853 19.7988L8.01457 19.7398L8.00116 19.6806L7.9883 19.6212L7.97605 19.5616L7.96442 19.5018L7.95333 19.4419L7.94286 19.3818L7.93301 19.3215L7.92377 19.2611L7.91508 19.2005L7.90701 19.1398L7.89962 19.0789L7.89278 19.0179L7.88655 18.9568L7.88094 18.8955L7.87595 18.8341L7.87157 18.7727L7.86781 18.7111L7.86466 18.6494L7.86213 18.5877L7.86021 18.5258L7.85898 18.4638L7.85836 18.4019L7.85829 18.3398L7.85891 18.2776L7.86021 18.2155L7.86206 18.1532L7.86459 18.0909L7.86774 18.0286L7.8715 17.9663L7.87588 17.904L7.88094 17.8416L7.88662 17.7792L7.89292 17.7169L7.89989 17.6545L7.90749 17.5921L7.9157 17.5298L7.92459 17.4675L7.93411 17.4052L7.9443 17.343L7.95504 17.2807L7.96647 17.2186L7.97858 17.1565L7.99131 17.0945L8.00465 17.0325L8.01861 16.9706L8.03325 16.9089L8.04851 16.8472L8.06445 16.7856L8.08101 16.7241L8.09818 16.6627L8.11597 16.6014L8.13444 16.5403L8.15353 16.4792L8.17324 16.4183L8.19363 16.3577L8.21463 16.297L8.23625 16.2366L8.25849 16.1764L8.28141 16.1163L8.30495 16.0564L8.3291 15.9966L8.35387 15.9371L8.37925 15.8777L8.40532 15.8186L8.43194 15.7596L8.45924 15.7009L8.48708 15.6425L8.51562 15.5842L8.5447 15.5261L8.57446 15.4684L8.60477 15.4108L8.63576 15.3536L8.66731 15.2965L8.69946 15.2398L8.73224 15.1833L8.76563 15.1271L8.79956 15.0712L8.83418 15.0156L8.86935 14.9602L8.90507 14.9052L8.9414 14.8506L8.97835 14.7962L9.01584 14.7421L9.05395 14.6884L9.09261 14.635L9.13182 14.582L9.17164 14.5293L9.21201 14.477L9.25299 14.425L9.29452 14.3734L9.33653 14.3222L9.37916 14.2713L9.42233 14.2208L9.46605 14.1708L9.51032 14.1211L9.55514 14.0719L9.6005 14.023L9.64641 13.9746L9.6928 13.9266L9.73974 13.879L9.78722 13.8318L9.83518 13.7851L9.8837 13.7388L9.93268 13.693L9.98215 13.6476L10.0322 13.6027L10.0827 13.5583L10.1337 13.5143L10.1852 13.4708L10.2372 13.4278L10.2896 13.3853L10.3425 13.3432L10.396 13.3017L10.4498 13.2607L10.5041 13.2202L10.5589 13.1802L10.6142 13.1407L10.6699 13.1017L10.726 13.0633L10.7825 13.0255L10.8395 12.9881L10.897 12.9513L10.9548 12.9151L11.0131 12.8794L11.0718 12.8442L11.1309 12.8096L11.1903 12.7756L11.2502 12.7422L11.3105 12.7093L11.3711 12.6771L11.4321 12.6453L11.4935 12.6143L11.5553 12.5837L11.6174 12.5539L11.6799 12.5245L11.7427 12.4958L11.8058 12.4678L11.8694 12.4402L11.9332 12.4134L11.9974 12.3872L12.0619 12.3616L12.1267 12.3366L12.1917 12.3122L12.2572 12.2886L12.3229 12.2655L12.3889 12.2431L12.4552 12.2213L12.5217 12.2002L12.5885 12.1797L12.6556 12.1599L12.7229 12.1408L12.7905 12.1223L12.8583 12.1045L12.9264 12.0873L12.9947 12.0709L13.0632 12.0551L13.1319 12.04L13.2009 12.0256L13.27 12.0119L13.3047 12.0053ZM14.1544 17.0875L13.3658 17.2803L13.3195 13.2836L13.2823 13.2921L13.2263 13.3057L13.1704 13.3197L13.1149 13.3343L13.0595 13.3494L13.0044 13.3651L12.9494 13.3814L12.8948 13.3981L12.8402 13.4154L12.7862 13.4331L12.7321 13.4515L12.6783 13.4704L12.6248 13.4898L12.5715 13.5097L12.5187 13.5301L12.4659 13.5511L12.4134 13.5725L12.3613 13.5944L12.3092 13.6169L12.2578 13.6398L12.2065 13.6633L12.1555 13.6872L12.1047 13.7117L12.0544 13.7365L12.0041 13.7619L11.9545 13.7877L11.905 13.8141L11.8559 13.8409L11.8071 13.8681L11.7586 13.8958L11.7104 13.924L11.6628 13.9526L11.6151 13.9818L11.568 14.0113L11.5214 14.0412L11.475 14.0716L11.4288 14.1025L11.3832 14.1338L11.3379 14.1655L11.293 14.1975L11.2485 14.23L11.2042 14.263L11.1604 14.2964L11.1171 14.3301L11.074 14.3643L11.0315 14.3987L10.9893 14.4336L10.9474 14.469L10.906 14.5048L10.8651 14.5407L10.8245 14.5772L10.7843 14.614L10.7446 14.6511L10.7052 14.6887L10.6664 14.7266L10.6279 14.7647L10.5898 14.8034L10.5522 14.8422L10.5151 14.8815L10.4784 14.921L10.442 14.961L10.4062 15.0011L10.3709 15.0417L10.3359 15.0825L10.3015 15.1236L10.2674 15.1651L10.2339 15.2067L10.2008 15.2488L10.1682 15.291L10.136 15.3336L10.1043 15.3765L10.0731 15.4196L10.0423 15.4629L10.0121 15.5065L9.98222 15.5505L9.95287 15.5946L9.92406 15.639L9.89574 15.6836L9.86789 15.7284L9.84045 15.7735L9.81363 15.8187L9.78715 15.8644L9.76129 15.9099L9.73584 15.9559L9.71086 16.0021L9.68651 16.0483L9.66256 16.0948L9.63916 16.1415L9.61617 16.1885L9.59379 16.2354L9.57183 16.2827L9.55042 16.33L9.52955 16.3775L9.50909 16.4252L9.48918 16.4731L9.46982 16.521L9.45093 16.5691L9.4326 16.6174L9.41467 16.6657L9.39736 16.7141L9.38053 16.7627L9.36417 16.8115L9.34837 16.8603L9.33304 16.9091L9.31826 16.9582L9.30396 17.0073L9.29028 17.0563L9.27701 17.1056L9.26421 17.155L9.25203 17.2043L9.24033 17.2537L9.22911 17.3032L9.21844 17.3528L9.20831 17.4024L9.19866 17.452L9.1895 17.5016L9.18087 17.5514L9.1728 17.601L9.16521 17.6507L9.15809 17.7005L9.15152 17.7502L9.1455 17.8L9.13996 17.8496L9.13489 17.8994L9.13038 17.9492L9.12634 17.9989L9.12285 18.0486L9.11984 18.0983L9.11731 18.1478L9.11533 18.1974L9.11382 18.2469L9.11286 18.2964L9.11232 18.3459L9.11238 18.3952L9.11286 18.4445L9.11389 18.4938L9.1154 18.5429L9.11738 18.592L9.11984 18.641L9.12285 18.6898L9.12634 18.7386L9.13031 18.7874L9.13476 18.8359L9.13968 18.8845L9.14509 18.9328L9.15097 18.9811L9.15734 19.0291L9.16425 19.0772L9.17157 19.125L9.17937 19.1728L9.18765 19.2204L9.19641 19.2678L9.20564 19.3152L9.21529 19.3622L9.22548 19.4092L9.23609 19.456L9.24717 19.5027L9.25867 19.549L9.27071 19.5954L9.2831 19.6414L9.29596 19.6874L9.3093 19.7331L9.32305 19.7786L9.33728 19.8239L9.35193 19.8689L9.36705 19.9139L9.38258 19.9586L9.39852 20.003L9.41487 20.0473L9.43171 20.0913L9.44895 20.1351L9.4666 20.1786L9.48459 20.2219L9.50314 20.265L9.52202 20.3078L9.54132 20.3504L9.56102 20.3927L9.58107 20.4347L9.60166 20.4766L9.62246 20.518L9.64374 20.5593L9.66543 20.6003L9.68753 20.641L9.70997 20.6814L9.73276 20.7216L9.75595 20.7614L9.77956 20.801L9.80344 20.8403L9.82773 20.8792L9.85243 20.9179L9.8774 20.9562L9.90279 20.9944L9.92844 21.032L9.95451 21.0695L9.98092 21.1066L10.0076 21.1433L10.0348 21.1799L10.0621 21.216L10.0898 21.2518L10.1179 21.2873L10.1463 21.3225L10.1749 21.3572L10.204 21.3917L10.2333 21.4259L10.2628 21.4596L10.2929 21.4931L10.323 21.526L10.3535 21.5589L10.3843 21.5912L10.4153 21.6232L10.4467 21.6548L10.4783 21.6861L10.5102 21.7171L10.5423 21.7476L10.5747 21.7778L10.6075 21.8076L10.6404 21.837L10.6735 21.866L10.7069 21.8947L10.7406 21.923L10.7745 21.9509L10.8087 21.9784L10.843 22.0055L10.8776 22.0323L10.9125 22.0587L10.9475 22.0846L10.9827 22.1102L11.0182 22.1354L11.0538 22.1602L11.0897 22.1845L11.1257 22.2085L11.1619 22.2321L11.1984 22.2553L11.2349 22.278L11.2717 22.3004L11.3087 22.3224L11.3457 22.3438L11.3829 22.365L11.4205 22.3858L11.4581 22.4061L11.4958 22.426L11.5336 22.4454L11.5717 22.4645L11.6098 22.4831L11.6481 22.5014L11.6865 22.5193L11.725 22.5366L11.7637 22.5536L11.8025 22.5702L11.8413 22.5864L11.8803 22.6021L11.9194 22.6174L11.9586 22.6323L11.9978 22.6468L12.0372 22.6609L12.0766 22.6745L12.1161 22.6877L12.1557 22.7005L12.1954 22.7129L12.2351 22.7248L12.2748 22.7363L12.3147 22.7474L12.3546 22.7581L12.3945 22.7683L12.4344 22.7782L12.4744 22.7876L12.5144 22.7965L12.5545 22.8051L12.5946 22.8133L12.6347 22.821L12.6748 22.8283L12.715 22.8352L12.7551 22.8417L12.7953 22.8478L12.8353 22.8534L12.8755 22.8586L12.9156 22.8634L12.9557 22.8678L12.9958 22.8717L13.0359 22.8753L13.0759 22.8784L13.1159 22.8812L13.1559 22.8835L13.1958 22.8854L13.2356 22.8869L13.2756 22.888L13.3153 22.8887L13.355 22.8889L13.3947 22.8888L13.4342 22.8883L13.4738 22.8873L13.5133 22.886L13.5526 22.8843L13.5918 22.8822L13.6312 22.8796L13.6702 22.8767L13.7093 22.8734L13.7481 22.8697L13.787 22.8656L13.8257 22.8611L13.8642 22.8562L13.9028 22.851L13.9411 22.8453L13.9793 22.8393L14.0176 22.8329L14.0555 22.8262L14.0934 22.819L14.1311 22.8115L14.1688 22.8035L14.2061 22.7953L14.2433 22.7867L14.2806 22.7776L14.3176 22.7683L14.3544 22.7586L14.3911 22.7485L14.4275 22.7381L14.464 22.7272L14.5001 22.7161L14.536 22.7046L14.572 22.6927L14.6076 22.6806L14.643 22.6681L14.6782 22.6552L14.7133 22.642L14.7482 22.6284L14.7829 22.6145L14.8173 22.6003L14.8516 22.5858L14.8857 22.5709L14.9196 22.5557L14.9531 22.5403L14.9867 22.5244L15.0199 22.5083L15.0528 22.4919L15.0856 22.4752L15.118 22.4582L15.1504 22.4408L15.1825 22.4231L15.2143 22.4052L15.2459 22.387L15.2773 22.3684L15.3084 22.3496L15.3392 22.3305L15.3698 22.3111L15.4001 22.2914L15.4302 22.2715L15.4601 22.2513L15.4897 22.2309L15.5191 22.2101L15.5481 22.1891L15.5769 22.1679L15.6054 22.1463L15.6337 22.1245L15.6616 22.1025L15.6894 22.0802L15.7169 22.0577L15.744 22.035L15.7708 22.0121L15.7974 21.9888L15.8237 21.9654L15.8497 21.9417L15.8755 21.9178L15.9009 21.8937L15.926 21.8694L15.9509 21.8448L15.9754 21.82L15.9997 21.7951L16.0237 21.77L16.0473 21.7446L16.0706 21.7191L16.0937 21.6933L16.1164 21.6674L16.1389 21.6413L16.161 21.6149L16.1827 21.5885L16.2044 21.5618L16.2254 21.5351L16.2464 21.508L16.267 21.481L16.2872 21.4537L16.3071 21.4262L16.3267 21.3986L16.346 21.3708L16.365 21.3428L16.3836 21.3149L16.402 21.2866L16.42 21.2584L16.4376 21.2299L16.455 21.2014L16.472 21.1727L16.4887 21.1438L16.5051 21.1149L16.5212 21.0859L16.5369 21.0568L16.5523 21.0274L16.5673 20.9982L16.582 20.9687L16.5965 20.9392L16.6106 20.9095L16.6243 20.8797L16.6377 20.85L16.6508 20.8201L16.6635 20.7902L16.676 20.7601L16.688 20.7301L16.6999 20.6998L16.7112 20.6697L16.7224 20.6392L16.7331 20.6092L16.7435 20.5787L16.7536 20.5481L16.7634 20.5178L16.7728 20.4872L16.7819 20.4568L16.7907 20.426L16.7991 20.3956L16.8073 20.3647L16.815 20.3344L16.8225 20.3036L16.8296 20.2728L16.8364 20.2422L16.8428 20.2116L16.849 20.1807L16.8548 20.1501L16.8602 20.1192L16.8654 20.0887L16.8702 20.0581L16.8748 20.0273L16.8789 19.9966L16.8828 19.9659L16.8863 19.9354L16.8895 19.905L16.8924 19.8742L16.895 19.8438L16.8973 19.8133L16.8992 19.7828L16.9008 19.7524L16.9021 19.7221L16.9031 19.692L16.9038 19.6616L16.9042 19.6313L16.9042 19.6013L16.904 19.5712L16.9034 19.5413L16.9025 19.5114L16.9014 19.4813L16.8999 19.4519L16.8981 19.4218L16.896 19.3924L16.8936 19.363L16.891 19.3333L16.888 19.304L16.8847 19.2749L16.8811 19.2454L16.8773 19.2166L16.8731 19.1876L16.8687 19.1589L16.8639 19.13L16.8589 19.1013L16.8537 19.0729L16.8481 19.0445L16.8423 19.0161L16.8361 18.9881L16.8297 18.96L16.823 18.9321L16.8161 18.9045L16.8088 18.8766L16.8014 18.8493L16.7936 18.8217L16.7856 18.7946L16.7773 18.7676L16.7688 18.7407L16.7599 18.7139L16.7508 18.6871L16.7416 18.6608L16.732 18.6345L16.7222 18.6082L16.7121 18.5823L16.7018 18.5563L16.6913 18.5309L16.6804 18.5052L16.6695 18.4799L16.6582 18.4549L16.6467 18.4298L16.635 18.405L16.623 18.3804L16.6109 18.3559L16.5985 18.3317L16.5858 18.3076L16.573 18.2837L16.5599 18.26L16.5466 18.2365L16.5332 18.2132L16.5195 18.19L16.5056 18.167L16.4915 18.1444L16.4772 18.1219L16.4627 18.0995L16.4479 18.0773L16.4331 18.0555L16.418 18.0337L16.4027 18.0122L16.3873 17.991L16.3716 17.9699L16.3558 17.949L16.3398 17.9283L16.3236 17.9079L16.3073 17.8877L16.2908 17.8677L16.2741 17.8479L16.2573 17.8284L16.2403 17.809L16.2231 17.7899L16.2058 17.771L16.1884 17.7523L16.1707 17.7339L16.1529 17.7157L16.1351 17.6977L16.117 17.68L16.0989 17.6625L16.0804 17.6452L16.062 17.6282L16.0434 17.6113L16.0248 17.5948L16.0059 17.5784L15.9869 17.5624L15.9678 17.5465L15.9487 17.5309L15.9294 17.5155L15.9099 17.5003L15.8904 17.4854L15.8708 17.4707L15.851 17.4563L15.8313 17.4422L15.8114 17.4282L15.7914 17.4145L15.7713 17.4011L15.751 17.3878L15.7308 17.3749L15.7104 17.3622L15.69 17.3497L15.6695 17.3375L15.6489 17.3256L15.6282 17.3138L15.6075 17.3023L15.5868 17.291L15.5659 17.2801L15.5451 17.2693L15.5241 17.2588L15.5031 17.2485L15.482 17.2386L15.461 17.2288L15.4398 17.2193L15.4185 17.21L15.3975 17.201L15.3761 17.1923L15.3548 17.1837L15.3335 17.1755L15.3122 17.1674L15.2908 17.1596L15.2694 17.1521L15.248 17.1447L15.2266 17.1377L15.2051 17.1309L15.1837 17.1243L15.1623 17.118L15.1407 17.1119L15.1193 17.1061L15.0979 17.1005L15.0764 17.0951L15.0549 17.09L15.0335 17.0851L15.012 17.0805L14.9906 17.0761L14.9692 17.0719L14.9479 17.068L14.9264 17.0642L14.9052 17.0608L14.8837 17.0576L14.8626 17.0546L14.8412 17.0518L14.82 17.0493L14.7989 17.0469L14.7777 17.0449L14.7566 17.043L14.7356 17.0414L14.7146 17.04L14.6936 17.0388L14.6726 17.0379L14.6519 17.0372L14.631 17.0367L14.6103 17.0364L14.5896 17.0363L14.569 17.0365L14.5484 17.0369L14.5279 17.0374L14.5075 17.0383L14.4872 17.0393L14.4668 17.0405L14.4467 17.0419L14.4266 17.0435L14.4065 17.0454L14.3866 17.0474L14.3666 17.0497L14.3469 17.0521L14.3272 17.0548L14.3077 17.0577L14.2881 17.0607L14.2687 17.064L14.2494 17.0674L14.2303 17.071L14.2111 17.0749L14.1921 17.0789L14.1731 17.0831L14.1544 17.0875Z" fill="url(#paint0_linear_176_1659)"/>
<path d="M47.184 12.16V10.432H35.088V9.28H48.336V12.544L39.528 24.352H48.36V25.504H37.248L47.184 12.16ZM34.464 24.472L43.176 12.928H35.088V11.776H45.48L35.616 24.856V26.848H48.36V28H34.464V24.472ZM64.7338 21.328C64.7338 22.736 64.4538 23.96 63.8938 25C63.3338 26.04 62.5258 26.848 61.4698 27.424C60.4298 28 59.1818 28.288 57.7258 28.288C56.2698 28.288 55.0138 28 53.9578 27.424C52.9018 26.848 52.0858 26.04 51.5098 25C50.9498 23.96 50.6698 22.736 50.6698 21.328C50.6698 19.904 50.9498 18.672 51.5098 17.632C52.0858 16.576 52.9018 15.76 53.9578 15.184C55.0138 14.608 56.2698 14.32 57.7258 14.32C59.1818 14.32 60.4298 14.608 61.4698 15.184C62.5258 15.76 63.3338 16.576 63.8938 17.632C64.4538 18.672 64.7338 19.904 64.7338 21.328ZM63.5818 21.328C63.5818 20.144 63.3418 19.112 62.8618 18.232C62.3978 17.352 61.7258 16.672 60.8458 16.192C59.9818 15.712 58.9418 15.472 57.7258 15.472C56.5098 15.472 55.4618 15.712 54.5818 16.192C53.7018 16.672 53.0218 17.352 52.5418 18.232C52.0618 19.112 51.8218 20.144 51.8218 21.328C51.8218 22.496 52.0618 23.52 52.5418 24.4C53.0218 25.28 53.7018 25.96 54.5818 26.44C55.4618 26.92 56.5098 27.16 57.7258 27.16C58.9418 27.16 59.9818 26.92 60.8458 26.44C61.7258 25.96 62.3978 25.28 62.8618 24.4C63.3418 23.52 63.5818 22.496 63.5818 21.328ZM57.7258 26.152C56.5738 26.152 55.6298 25.728 54.8938 24.88C54.1578 24.032 53.7898 22.848 53.7898 21.328C53.7898 19.808 54.1578 18.632 54.8938 17.8C55.6298 16.952 56.5738 16.528 57.7258 16.528C58.8778 16.528 59.8138 16.952 60.5338 17.8C61.2538 18.632 61.6138 19.808 61.6138 21.328C61.6138 22.88 61.2538 24.072 60.5338 24.904C59.8138 25.736 58.8778 26.152 57.7258 26.152ZM57.7258 25C58.5738 25 59.2378 24.672 59.7178 24.016C60.2138 23.36 60.4618 22.464 60.4618 21.328C60.4618 20.192 60.2138 19.304 59.7178 18.664C59.2378 18.008 58.5738 17.68 57.7258 17.68C56.8778 17.68 56.1978 18.008 55.6858 18.664C55.1898 19.304 54.9418 20.192 54.9418 21.328C54.9418 22.448 55.1898 23.344 55.6858 24.016C56.1978 24.672 56.8778 25 57.7258 25ZM79.0404 19.216C79.0404 18.528 78.8884 17.904 78.5844 17.344C78.2804 16.768 77.8484 16.312 77.2884 15.976C76.7444 15.64 76.0884 15.472 75.3204 15.472C74.7124 15.472 74.1044 15.528 73.4964 15.64C72.8884 15.752 72.2884 16.008 71.6964 16.408C71.1044 16.808 70.5204 17.448 69.9444 18.328V14.632H71.0964V15.856C71.4324 15.376 71.9444 15 72.6324 14.728C73.3364 14.456 74.2324 14.32 75.3204 14.32C76.3124 14.32 77.1684 14.544 77.8884 14.992C78.6244 15.424 79.1924 16.016 79.5924 16.768C79.9924 17.504 80.1924 18.32 80.1924 19.216V28H79.0404V19.216ZM67.2804 14.632H68.4324V28H67.2804V14.632ZM75.9684 19.936C75.9684 19.264 75.7924 18.752 75.4404 18.4C75.0884 18.032 74.6324 17.848 74.0724 17.848C73.4804 17.848 72.9444 18.008 72.4644 18.328C71.9844 18.648 71.6564 19.104 71.4804 19.696V28H70.3284V19.552C70.6004 18.608 71.0724 17.896 71.7444 17.416C72.4324 16.936 73.2084 16.696 74.0724 16.696C74.9684 16.696 75.6964 16.976 76.2564 17.536C76.8324 18.08 77.1204 18.88 77.1204 19.936V28H75.9684V19.936ZM95.7409 25.552C94.9569 26.48 94.1009 27.168 93.1729 27.616C92.2449 28.064 91.0289 28.288 89.5249 28.288C88.1649 28.288 86.9729 28.008 85.9489 27.448C84.9249 26.872 84.1249 26.064 83.5489 25.024C82.9889 23.968 82.7089 22.728 82.7089 21.304C82.7089 20.024 82.9649 18.856 83.4769 17.8C84.0049 16.744 84.7649 15.904 85.7569 15.28C86.7649 14.64 87.9889 14.32 89.4289 14.32C90.7569 14.32 91.9009 14.608 92.8609 15.184C93.8209 15.744 94.5649 16.544 95.0929 17.584C95.6209 18.608 95.8849 19.832 95.8849 21.256C95.8849 21.336 95.8769 21.424 95.8609 21.52C95.8609 21.6 95.8609 21.688 95.8609 21.784L86.5969 22.936C86.7249 23.544 87.0849 24.04 87.6769 24.424C88.2849 24.808 89.0049 25 89.8369 25C90.6209 25 91.3569 24.84 92.0449 24.52C92.7329 24.2 93.2929 23.728 93.7249 23.104L94.4689 24.016C93.7969 24.768 93.0929 25.312 92.3569 25.648C91.6209 25.984 90.7809 26.152 89.8369 26.152C88.7169 26.152 87.7409 25.824 86.9089 25.168C86.0929 24.496 85.5329 23.416 85.2289 21.928L94.7089 20.752C94.6129 19.12 94.1009 17.832 93.1729 16.888C92.2449 15.944 90.9969 15.472 89.4289 15.472C88.2289 15.472 87.2129 15.736 86.3809 16.264C85.5489 16.792 84.9169 17.496 84.4849 18.376C84.0689 19.256 83.8609 20.232 83.8609 21.304C83.8609 22.488 84.0929 23.52 84.5569 24.4C85.0209 25.28 85.6769 25.96 86.5249 26.44C87.3729 26.92 88.3729 27.16 89.5249 27.16C90.4369 27.16 91.2129 27.064 91.8529 26.872C92.5089 26.68 93.0849 26.4 93.5809 26.032C94.0929 25.664 94.5729 25.216 95.0209 24.688L95.7409 25.552ZM85.1809 21.016C85.3569 19.448 85.8209 18.296 86.5729 17.56C87.3249 16.808 88.2689 16.432 89.4049 16.432C90.4449 16.432 91.2929 16.744 91.9489 17.368C92.6049 17.992 93.0209 18.864 93.1969 19.984L85.1809 21.016ZM91.8769 19.12C91.8289 18.752 91.5809 18.408 91.1329 18.088C90.6849 17.752 90.1089 17.584 89.4049 17.584C88.8609 17.584 88.3729 17.696 87.9409 17.92C87.5089 18.128 87.1649 18.408 86.9089 18.76C86.6529 19.096 86.5009 19.448 86.4529 19.816L91.8769 19.12Z" fill="url(#paint1_linear_176_1659)"/>
<defs>
<linearGradient id="paint0_linear_176_1659" x1="34" y1="23.5" x2="9.04974" y2="24.614" gradientUnits="userSpaceOnUse">
<stop stop-color="#FF0000"/>
<stop offset="1" stop-color="#7A1818"/>
</linearGradient>
<linearGradient id="paint1_linear_176_1659" x1="69" y1="39.5" x2="69" y2="14" gradientUnits="userSpaceOnUse">
<stop stop-color="#FF0000"/>
<stop offset="1" stop-color="#770D0D"/>
</linearGradient>
</defs>
</svg>
