<svg width="62" height="20" viewBox="0 0 62 20" fill="none" xmlns="http://www.w3.org/2000/svg">
<path d="M13.184 3.16V1.432H1.088V0.279999H14.336V3.544L5.528 15.352H14.36V16.504H3.248L13.184 3.16ZM0.464 15.472L9.176 3.928H1.088V2.776H11.48L1.616 15.856V17.848H14.36V19H0.464V15.472ZM30.7338 12.328C30.7338 13.736 30.4538 14.96 29.8938 16C29.3338 17.04 28.5258 17.848 27.4698 18.424C26.4298 19 25.1818 19.288 23.7258 19.288C22.2698 19.288 21.0138 19 19.9578 18.424C18.9018 17.848 18.0858 17.04 17.5098 16C16.9498 14.96 16.6698 13.736 16.6698 12.328C16.6698 10.904 16.9498 9.672 17.5098 8.632C18.0858 7.576 18.9018 6.76 19.9578 6.184C21.0138 5.608 22.2698 5.32 23.7258 5.32C25.1818 5.32 26.4298 5.608 27.4698 6.184C28.5258 6.76 29.3338 7.576 29.8938 8.632C30.4538 9.672 30.7338 10.904 30.7338 12.328ZM29.5818 12.328C29.5818 11.144 29.3418 10.112 28.8618 9.232C28.3978 8.352 27.7258 7.672 26.8458 7.192C25.9818 6.712 24.9418 6.472 23.7258 6.472C22.5098 6.472 21.4618 6.712 20.5818 7.192C19.7018 7.672 19.0218 8.352 18.5418 9.232C18.0618 10.112 17.8218 11.144 17.8218 12.328C17.8218 13.496 18.0618 14.52 18.5418 15.4C19.0218 16.28 19.7018 16.96 20.5818 17.44C21.4618 17.92 22.5098 18.16 23.7258 18.16C24.9418 18.16 25.9818 17.92 26.8458 17.44C27.7258 16.96 28.3978 16.28 28.8618 15.4C29.3418 14.52 29.5818 13.496 29.5818 12.328ZM23.7258 17.152C22.5738 17.152 21.6298 16.728 20.8938 15.88C20.1578 15.032 19.7898 13.848 19.7898 12.328C19.7898 10.808 20.1578 9.632 20.8938 8.8C21.6298 7.952 22.5738 7.528 23.7258 7.528C24.8778 7.528 25.8138 7.952 26.5338 8.8C27.2538 9.632 27.6138 10.808 27.6138 12.328C27.6138 13.88 27.2538 15.072 26.5338 15.904C25.8138 16.736 24.8778 17.152 23.7258 17.152ZM23.7258 16C24.5738 16 25.2378 15.672 25.7178 15.016C26.2138 14.36 26.4618 13.464 26.4618 12.328C26.4618 11.192 26.2138 10.304 25.7178 9.664C25.2378 9.008 24.5738 8.68 23.7258 8.68C22.8778 8.68 22.1978 9.008 21.6858 9.664C21.1898 10.304 20.9418 11.192 20.9418 12.328C20.9418 13.448 21.1898 14.344 21.6858 15.016C22.1978 15.672 22.8778 16 23.7258 16ZM45.0404 10.216C45.0404 9.528 44.8884 8.904 44.5844 8.344C44.2804 7.768 43.8484 7.312 43.2884 6.976C42.7444 6.64 42.0884 6.472 41.3204 6.472C40.7124 6.472 40.1044 6.528 39.4964 6.64C38.8884 6.752 38.2884 7.008 37.6964 7.408C37.1044 7.808 36.5204 8.448 35.9444 9.328V5.632H37.0964V6.856C37.4324 6.376 37.9444 6 38.6324 5.728C39.3364 5.456 40.2324 5.32 41.3204 5.32C42.3124 5.32 43.1684 5.544 43.8884 5.992C44.6244 6.424 45.1924 7.016 45.5924 7.768C45.9924 8.504 46.1924 9.32 46.1924 10.216V19H45.0404V10.216ZM33.2804 5.632H34.4324V19H33.2804V5.632ZM41.9684 10.936C41.9684 10.264 41.7924 9.752 41.4404 9.4C41.0884 9.032 40.6324 8.848 40.0724 8.848C39.4804 8.848 38.9444 9.008 38.4644 9.328C37.9844 9.648 37.6564 10.104 37.4804 10.696V19H36.3284V10.552C36.6004 9.608 37.0724 8.896 37.7444 8.416C38.4324 7.936 39.2084 7.696 40.0724 7.696C40.9684 7.696 41.6964 7.976 42.2564 8.536C42.8324 9.08 43.1204 9.88 43.1204 10.936V19H41.9684V10.936ZM61.7409 16.552C60.9569 17.48 60.1009 18.168 59.1729 18.616C58.2449 19.064 57.0289 19.288 55.5249 19.288C54.1649 19.288 52.9729 19.008 51.9489 18.448C50.9249 17.872 50.1249 17.064 49.5489 16.024C48.9889 14.968 48.7089 13.728 48.7089 12.304C48.7089 11.024 48.9649 9.856 49.4769 8.8C50.0049 7.744 50.7649 6.904 51.7569 6.28C52.7649 5.64 53.9889 5.32 55.4289 5.32C56.7569 5.32 57.9009 5.608 58.8609 6.184C59.8209 6.744 60.5649 7.544 61.0929 8.584C61.6209 9.608 61.8849 10.832 61.8849 12.256C61.8849 12.336 61.8769 12.424 61.8609 12.52C61.8609 12.6 61.8609 12.688 61.8609 12.784L52.5969 13.936C52.7249 14.544 53.0849 15.04 53.6769 15.424C54.2849 15.808 55.0049 16 55.8369 16C56.6209 16 57.3569 15.84 58.0449 15.52C58.7329 15.2 59.2929 14.728 59.7249 14.104L60.4689 15.016C59.7969 15.768 59.0929 16.312 58.3569 16.648C57.6209 16.984 56.7809 17.152 55.8369 17.152C54.7169 17.152 53.7409 16.824 52.9089 16.168C52.0929 15.496 51.5329 14.416 51.2289 12.928L60.7089 11.752C60.6129 10.12 60.1009 8.832 59.1729 7.888C58.2449 6.944 56.9969 6.472 55.4289 6.472C54.2289 6.472 53.2129 6.736 52.3809 7.264C51.5489 7.792 50.9169 8.496 50.4849 9.376C50.0689 10.256 49.8609 11.232 49.8609 12.304C49.8609 13.488 50.0929 14.52 50.5569 15.4C51.0209 16.28 51.6769 16.96 52.5249 17.44C53.3729 17.92 54.3729 18.16 55.5249 18.16C56.4369 18.16 57.2129 18.064 57.8529 17.872C58.5089 17.68 59.0849 17.4 59.5809 17.032C60.0929 16.664 60.5729 16.216 61.0209 15.688L61.7409 16.552ZM51.1809 12.016C51.3569 10.448 51.8209 9.296 52.5729 8.56C53.3249 7.808 54.2689 7.432 55.4049 7.432C56.4449 7.432 57.2929 7.744 57.9489 8.368C58.6049 8.992 59.0209 9.864 59.1969 10.984L51.1809 12.016ZM57.8769 10.12C57.8289 9.752 57.5809 9.408 57.1329 9.088C56.6849 8.752 56.1089 8.584 55.4049 8.584C54.8609 8.584 54.3729 8.696 53.9409 8.92C53.5089 9.128 53.1649 9.408 52.9089 9.76C52.6529 10.096 52.5009 10.448 52.4529 10.816L57.8769 10.12Z" fill="url(#paint0_linear_176_1653)"/>
<defs>
<linearGradient id="paint0_linear_176_1653" x1="35" y1="30.5" x2="35" y2="5" gradientUnits="userSpaceOnUse">
<stop stop-color="#FF0000"/>
<stop offset="1" stop-color="#770D0D"/>
</linearGradient>
</defs>
</svg>
